<svg xmlns="http://www.w3.org/2000/svg" width="350" height="114.222" viewBox="0 0 350 114.222">
  <g id="logo-digital-ware-white" transform="translate(-232 -170.202)">
    <path id="Trazado_91" data-name="Trazado 91" d="M950.534,1034c-1.193-.108-1.772-.313-1.675-.578.036-.109.145-.422.217-.711.1-.362.181-.494.313-.446a7.193,7.193,0,0,0,2.326.253,1.317,1.317,0,0,0,1.29-1.169c.253-1.169.193-1.242-.675-.82a3.742,3.742,0,0,1-2.748-.084c-1.061-.542-1.591-1.989-1.483-4.014a3.759,3.759,0,0,1,1.145-2.8,3.431,3.431,0,0,1,2.109-.952,10.762,10.762,0,0,1,3.339.253l.506.157-.036,4.339c-.036,4.918-.06,5.014-.976,5.8A4.7,4.7,0,0,1,950.534,1034Zm1.989-4.87a1.088,1.088,0,0,0,.422-.362c.036-.109.072-1.169.072-2.35v-2.158l-.542-.084c-1.145-.169-1.868.265-2.073,1.254a8.8,8.8,0,0,0,.072,2.941A1.4,1.4,0,0,0,952.522,1029.131Z" transform="translate(-629.771 -749.688)" fill="#fff"/>
    <path id="Trazado_92" data-name="Trazado 92" d="M1661.68,1034a8.248,8.248,0,0,1-1.29-.229l-.434-.145.193-.627a3.913,3.913,0,0,1,.253-.711,1.658,1.658,0,0,1,.747.1c1.29.338,2.423.145,2.833-.47a2.813,2.813,0,0,0,.265-.976c.084-.784.012-.82-.747-.434a2.659,2.659,0,0,1-1.266.241c-1.651,0-2.592-.88-2.9-2.7a7.423,7.423,0,0,1,.2-3.11,3.742,3.742,0,0,1,1.675-1.9,5.261,5.261,0,0,1,1.29-.362,10.379,10.379,0,0,1,3.339.253l.506.145-.036,4.412c-.036,4.038-.06,4.448-.265,4.833a3.057,3.057,0,0,1-2.567,1.688,8.461,8.461,0,0,1-.88.1C1662.56,1034.1,1662.151,1034.049,1661.68,1034Zm2.266-5.063c.193-.241.217-.518.217-2.471v-2.218l-.542-.084c-1.615-.241-2.194.518-2.158,2.845.024,1.736.458,2.35,1.6,2.266C1663.561,1029.227,1663.778,1029.143,1663.947,1028.938Z" transform="translate(-1255.216 -749.675)" fill="#fff"/>
    <path id="Trazado_93" data-name="Trazado 93" d="M1016.151,1035.089a1.539,1.539,0,0,1-.518-.157,1.972,1.972,0,0,1,.084-.735c.145-.675.157-.675.591-.675a1.413,1.413,0,0,0,1.205-1.519c0-.229-2.929-7.437-3.218-7.919a4.3,4.3,0,0,1,1.229-.06l1.29.036.7,2.3c.386,1.266.735,2.555.783,2.869.121.8.374.723.482-.133.036-.386.325-1.687.627-2.893l.542-2.206h1.073a6.317,6.317,0,0,1,1.073.048c0,.024-.651,1.977-1.446,4.339-1.856,5.521-2.3,6.389-3.387,6.7A1.565,1.565,0,0,1,1016.151,1035.089Z" transform="translate(-687.999 -750.885)" fill="#fff"/>
    <path id="Trazado_94" data-name="Trazado 94" d="M498.909,1030.724a2.887,2.887,0,0,1-1.639-1.037c-1.35-1.543-1.217-5.014.253-6.256a3.434,3.434,0,0,1,2.567-.832c1.639,0,2.483.494,3.013,1.772a5.784,5.784,0,0,1,.108,2.363l-.072.374h-4.677v.422c0,1.639,1.4,2.23,3.7,1.555.217-.06.3.012.518.446.265.494.265.518.048.675A6.823,6.823,0,0,1,498.909,1030.724Zm2.447-5.087c0-1.061-.458-1.663-1.266-1.663s-1.374.567-1.567,1.6l-.084.446h2.917Z" transform="translate(-232.472 -749.653)" fill="#fff"/>
    <path id="Trazado_95" data-name="Trazado 95" d="M567.636,1030.46a2.957,2.957,0,0,1-1.832-1.35c-.952-1.675-.711-4.809.446-5.918a4.182,4.182,0,0,1,3.471-.82c1.266.229,1.278.241,1.025,1.013-.169.482-.277.615-.446.6-1.314-.169-1.567-.169-1.977.048-.651.338-.892.952-.892,2.266-.012,1.266.157,1.808.663,2.3.325.313.446.35,1.109.35a6.078,6.078,0,0,0,1.109-.1c.362-.1.374-.072.567.518s.181.615-.024.723A5.678,5.678,0,0,1,567.636,1030.46Z" transform="translate(-293.05 -749.389)" fill="#fff"/>
    <path id="Trazado_96" data-name="Trazado 96" d="M768.4,1030.528a2.8,2.8,0,0,1-1.663-1.254,4.794,4.794,0,0,1-.615-3.026,3.517,3.517,0,0,1,2.085-3.459,4.789,4.789,0,0,1,3.279,0c1.4.615,2.013,1.784,2.013,3.809a3.975,3.975,0,0,1-.892,2.989A4.107,4.107,0,0,1,768.4,1030.528Zm2.314-1.591c.434-.325.6-1.037.6-2.4-.012-1.929-.494-2.628-1.712-2.5-.687.072-1.025.446-1.205,1.29-.289,1.374-.084,2.965.47,3.52a1.064,1.064,0,0,0,.94.338A1.307,1.307,0,0,0,770.711,1028.937Z" transform="translate(-469.728 -749.565)" fill="#fff"/>
    <path id="Trazado_97" data-name="Trazado 97" d="M841.892,1008.162a2.07,2.07,0,0,1-.627-.494c-.265-.325-.265-.386-.265-5.5V997h2.037l.036,4.713c.036,4.544.048,4.713.277,4.894a.909.909,0,0,0,.675.108l.434-.072.072.627a1.576,1.576,0,0,1-.012.723,5.545,5.545,0,0,1-1.82.338A2.918,2.918,0,0,1,841.892,1008.162Z" transform="translate(-535.593 -727.139)" fill="#fff"/>
    <path id="Trazado_98" data-name="Trazado 98" d="M879.231,1030.422a2.887,2.887,0,0,1-1.639-1.037,4.107,4.107,0,0,1-.892-3.013c.012-2.339.94-3.652,2.881-4.026a3.559,3.559,0,0,1,4.327,2.326,8.455,8.455,0,0,1,0,3.435,3.281,3.281,0,0,1-3.266,2.375A6.071,6.071,0,0,1,879.231,1030.422Zm2.061-1.748c.434-.362.627-1.049.627-2.218,0-1.88-.446-2.664-1.507-2.664a1.429,1.429,0,0,0-1.386,1.061,9.814,9.814,0,0,0,.012,3.086,1.212,1.212,0,0,0,1.3,1.037A1.263,1.263,0,0,0,881.292,1028.674Z" transform="translate(-566.99 -749.351)" fill="#fff"/>
    <path id="Trazado_99" data-name="Trazado 99" d="M1110.23,1016.9c-1.037-.47-1.145-.856-1.145-3.881v-2.4H1108v-1.567h1.085v-1.543l1.025-.253c.554-.133,1.049-.253,1.085-.253a4.215,4.215,0,0,1,.06,1.025v1.025h1.808v1.567h-1.808v2.23c0,2.109.012,2.242.253,2.483.217.217.35.253.892.181l.627-.072.121.6c.145.711.12.735-.9.952A2.974,2.974,0,0,1,1110.23,1016.9Z" transform="translate(-770.41 -735.934)" fill="#fff"/>
    <path id="Trazado_100" data-name="Trazado 100" d="M1296.254,1017.041c-1.109-.41-1.205-.723-1.266-3.833l-.048-2.507H1294v-1.567h.952l.036-.747.036-.747.9-.265a7.62,7.62,0,0,1,1.061-.277c.109-.012.145.265.145,1.013v1.025h1.941l-.036.759-.036.747-.928.036-.94.036v2.025a14.326,14.326,0,0,0,.133,2.4c.145.422.554.567,1.229.446.458-.084.482-.072.627.8.072.422.072.434-.446.579A4.66,4.66,0,0,1,1296.254,1017.041Z" transform="translate(-933.99 -736.019)" fill="#fff"/>
    <path id="Trazado_101" data-name="Trazado 101" d="M1379.28,1007.017a4.414,4.414,0,0,1-2.182-1.242,5.811,5.811,0,0,1-1.4-4.363c0-3.375,1.374-5.292,4.074-5.713a9.272,9.272,0,0,1,3.23.217l.3.121-.193.7c-.109.386-.2.711-.217.735a6.081,6.081,0,0,1-.988-.1c-1.953-.289-3.122.313-3.592,1.868a9.144,9.144,0,0,0,.012,4.159,2.829,2.829,0,0,0,1.7,1.917,4.711,4.711,0,0,0,2.387-.06,1.444,1.444,0,0,1,.627-.133,3.635,3.635,0,0,1,.241.7c.193.747.12.844-.675,1.085A12.287,12.287,0,0,1,1379.28,1007.017Z" transform="translate(-1005.843 -725.946)" fill="#fff"/>
    <path id="Trazado_102" data-name="Trazado 102" d="M1732.932,1030.434a2.685,2.685,0,0,1-1.338-.8c-1.41-1.266-1.495-4.665-.157-6.244a4.132,4.132,0,0,1,4.894-.506,3.6,3.6,0,0,1,1.013,3.592l-.072.374h-4.713l.072.615c.133,1.109.627,1.555,1.808,1.639a3.134,3.134,0,0,0,1.422-.169l.687-.229.253.53a1.253,1.253,0,0,1,.193.627,2.884,2.884,0,0,1-.76.362A6.9,6.9,0,0,1,1732.932,1030.434Zm2.555-5.147c0-1.109-.53-1.651-1.483-1.531-.723.1-1.169.615-1.338,1.567l-.084.446h2.9Z" transform="translate(-1317.862 -749.399)" fill="#fff"/>
    <path id="Trazado_103" data-name="Trazado 103" d="M1800.447,1030.76a4.781,4.781,0,0,1-1.447-.494,6.335,6.335,0,0,1,.253-.7l.253-.615.506.181a3.96,3.96,0,0,0,2.242.121.917.917,0,0,0,.253-1.157,5.72,5.72,0,0,0-1.338-.868,7.67,7.67,0,0,1-1.567-1.037,2.082,2.082,0,0,1,.7-3.315,3.106,3.106,0,0,1,1.712-.277,7.466,7.466,0,0,1,1.832.2l.687.2-.193.579a3.424,3.424,0,0,1-.265.651,2.5,2.5,0,0,1-.856-.1c-1.386-.3-2.049-.072-2.049.723,0,.35.3.591,1.567,1.205a3.288,3.288,0,0,1,1.88,1.712,2.259,2.259,0,0,1-1.892,2.929,7.222,7.222,0,0,1-2.278.048Z" transform="translate(-1378.12 -749.653)" fill="#fff"/>
    <path id="Trazado_104" data-name="Trazado 104" d="M2038.355,1007.017a4.874,4.874,0,0,1-1.229-.615c-1.229-.844-1.844-2.218-1.953-4.4-.2-4.038,1.41-6.268,4.544-6.3,2.989-.024,4.593,1.7,4.785,5.159.133,2.362-.41,4.146-1.6,5.243a4.777,4.777,0,0,1-1.217.784A7.59,7.59,0,0,1,2038.355,1007.017Zm2.363-1.687c.952-.41,1.29-1.217,1.374-3.351.1-2.278-.217-3.532-1.037-4.231a2.049,2.049,0,0,0-2.64.157c-.591.579-.771,1.3-.832,3.206-.072,1.868.084,2.724.627,3.556A2.076,2.076,0,0,0,2040.718,1005.329Z" transform="translate(-1585.81 -725.994)" fill="#fff"/>
    <path id="Trazado_105" data-name="Trazado 105" d="M2358.814,1030.774c-.856-.169-1.579-.434-1.531-.567.374-.94.482-1.169.567-1.169a8.011,8.011,0,0,1,.856.193,2.74,2.74,0,0,0,1.977-.072,1.115,1.115,0,0,0-.012-1.217,13.8,13.8,0,0,0-1.35-.771c-1.495-.771-1.953-1.326-1.953-2.3a3.011,3.011,0,0,1,.169-1,2.681,2.681,0,0,1,1.483-1.181,8.587,8.587,0,0,1,3.086.133c.771.229.76.193.374,1.145-.133.3-.217.386-.374.313a7.939,7.939,0,0,0-.928-.2c-.916-.169-1.6.012-1.712.458-.133.542.108.808,1.326,1.41,1.76.892,2.338,1.627,2.206,2.821a2.283,2.283,0,0,1-1.35,1.712,3.212,3.212,0,0,1-1.555.325,12.015,12.015,0,0,1-1.278-.024Z" transform="translate(-1869.107 -749.655)" fill="#fff"/>
    <path id="Trazado_106" data-name="Trazado 106" d="M2616.694,1030.348a3.342,3.342,0,0,1-2.338-2.833c-.458-2.278.326-4.243,1.953-4.966a4.261,4.261,0,0,1,3.8.265,3.6,3.6,0,0,1,1.012,3.592l-.072.374h-4.677v.458a2.011,2.011,0,0,0,.759,1.519c.289.2.518.253,1.326.241a4.036,4.036,0,0,0,1.422-.193l.434-.193.265.555c.265.53.265.567.06.711a6.372,6.372,0,0,1-3.941.47Zm2.568-5.038c0-1.061-.458-1.663-1.266-1.663-.844,0-1.374.53-1.567,1.6l-.084.446h2.917Z" transform="translate(-2095.082 -749.326)" fill="#fff"/>
    <path id="Trazado_107" data-name="Trazado 107" d="M2684.205,1030.718c-.651-.145-1.205-.362-1.205-.482a4.027,4.027,0,0,1,.253-.687l.241-.6.506.181a4.788,4.788,0,0,0,1.386.193c.988.012,1.229-.145,1.229-.8,0-.446-.338-.735-1.579-1.362-1.651-.832-2.242-1.736-1.917-2.929.3-1.157,1.205-1.663,2.953-1.639a7.175,7.175,0,0,1,1.772.217l.7.193-.241.615a4.32,4.32,0,0,1-.265.651,4.857,4.857,0,0,1-.88-.145,2.513,2.513,0,0,0-1.832.108.814.814,0,0,0-.157.53c0,.47.193.627,1.639,1.35a5.173,5.173,0,0,1,1.35.916,2.156,2.156,0,0,1-.771,3.447A6.51,6.51,0,0,1,2684.205,1030.718Z" transform="translate(-2155.565 -749.647)" fill="#fff"/>
    <path id="Trazado_108" data-name="Trazado 108" d="M1230.531,1030.932a2.157,2.157,0,0,1-1.109-2.507c.313-1.181,1.41-1.808,3.339-1.917.964-.048,1.121-.084,1.193-.289a2.2,2.2,0,0,0-.253-1.374c-.217-.3-1.555-.374-2.555-.133l-.747.169-.241-.591-.241-.591.386-.169a7.8,7.8,0,0,1,3.062-.4c1.4.048,1.929.3,2.363,1.109.253.47.265.627.265,3.447a26.228,26.228,0,0,0,.109,3.17c.084.181.012.2-.747.2h-.856l-.145-.422c-.181-.482-.446-.542-.783-.169A2.811,2.811,0,0,1,1230.531,1030.932Zm3-1.471c.386-.265.41-.313.446-1.073.036-.783.036-.783-.3-.856a3.124,3.124,0,0,0-1.772.325c-.265.169-.313.289-.313.8a1.057,1.057,0,0,0,.241.844A1.507,1.507,0,0,0,1233.533,1029.461Z" transform="translate(-877.127 -750.114)" fill="#fff"/>
    <path id="Trazado_109" data-name="Trazado 109" d="M1520.531,1030.932a2.157,2.157,0,0,1-1.109-2.507c.313-1.169,1.41-1.808,3.339-1.917,1.254-.06,1.3-.109,1.169-.94s-.265-.94-1.278-.988a5.845,5.845,0,0,0-1.567.133l-.675.181-.253-.6-.241-.591.386-.169a7.8,7.8,0,0,1,3.062-.4c1.4.048,1.868.265,2.326,1.085.3.518.3.542.265,3.182a27.585,27.585,0,0,0,.072,3.158l.121.506H1524.5l-.145-.422c-.181-.482-.446-.542-.783-.169A2.811,2.811,0,0,1,1520.531,1030.932Zm2.869-1.374c.47-.241.6-.518.6-1.3,0-.627-.024-.663-.326-.723a3.227,3.227,0,0,0-1.772.325c-.265.169-.313.289-.313.8,0,.771.277,1.085.964,1.085a2.231,2.231,0,0,0,.844-.181Z" transform="translate(-1132.171 -750.114)" fill="#fff"/>
    <path id="Trazado_110" data-name="Trazado 110" d="M2547.935,1028.195c-.868-2.073-1.615-3.869-1.664-3.978-.072-.193.036-.217,1.133-.217h1.218l.663,2.1a25.58,25.58,0,0,1,.747,2.652c.109.735.531.711.531-.024,0-.109.277-1.217.627-2.459l.639-2.266h1.121c.856,0,1.121.036,1.073.157-.036.072-.747,1.868-1.591,3.978l-1.531,3.821h-1.374Z" transform="translate(-2035.302 -750.884)" fill="#fff"/>
    <path id="Trazado_111" data-name="Trazado 111" d="M437.167,1003.388v-4.7H433.9l.036-.808.036-.82,4.315-.036,4.3-.024v1.688h-3.134v9.4h-2.29Z" transform="translate(-177.564 -727.139)" fill="#fff"/>
    <path id="Trazado_112" data-name="Trazado 112" d="M624.024,1002.493l.036-5.521,1.061-.036,1.049-.036v1.941a6.522,6.522,0,0,0,.121,1.929,2,2,0,0,0,.579-.3,3.22,3.22,0,0,1,3.122-.169,2.275,2.275,0,0,1,.663.808c.265.542.277.711.313,3.737l.048,3.158h-2.182l-.036-2.941c-.036-2.688-.06-2.965-.265-3.194a1.539,1.539,0,0,0-2.121.193c-.229.289-.241.482-.241,3.122V1008H624Z" transform="translate(-344.75 -727.051)" fill="#fff"/>
    <path id="Trazado_113" data-name="Trazado 113" d="M697,1026.774v-3.929l.808.036c.8.036.808.036.928.434.133.458.217.47.711.1a2.975,2.975,0,0,1,2.085-.711,1.867,1.867,0,0,1,1.977,1.013c.3.518.3.579.338,3.761l.036,3.218H701.7v-2.881c0-2.676-.012-2.893-.241-3.17a1.519,1.519,0,0,0-2.158.108c-.241.289-.253.47-.253,3.122v2.821H697Z" transform="translate(-408.951 -749.741)" fill="#fff"/>
    <path id="Trazado_114" data-name="Trazado 114" d="M1161.024,1002.493l.036-5.521,1.061-.036,1.049-.036v1.941a6.592,6.592,0,0,0,.121,1.929,3.687,3.687,0,0,0,.808-.386,2.411,2.411,0,0,1,1.543-.386,1.9,1.9,0,0,1,2.037,1.121c.229.518.253.8.289,3.725L1168,1008h-2.17l-.036-2.941c-.036-2.688-.06-2.965-.265-3.194a1.539,1.539,0,0,0-2.121.193c-.229.289-.241.482-.241,3.122V1008H1161Z" transform="translate(-817.022 -727.051)" fill="#fff"/>
    <path id="Trazado_115" data-name="Trazado 115" d="M1451,1002.545V997h2.17v1.929a6.526,6.526,0,0,0,.12,1.929,2,2,0,0,0,.579-.3,3.22,3.22,0,0,1,3.122-.169,2.274,2.274,0,0,1,.663.808c.265.542.277.711.313,3.737l.048,3.158h-2.182l-.036-2.941c-.036-2.688-.06-2.965-.265-3.194a1.539,1.539,0,0,0-2.121.193c-.229.289-.241.482-.241,3.122v2.821H1451Z" transform="translate(-1072.066 -727.139)" fill="#fff"/>
    <path id="Trazado_116" data-name="Trazado 116" d="M1590,1026.774v-3.917h.832c.832,0,.832,0,.916.374.109.494.374.567.759.193a2.857,2.857,0,0,1,2.073-.723,1.92,1.92,0,0,1,2.121,1.326,17.62,17.62,0,0,1,.169,3.568v3.1h-2.025l-.048-2.869c-.036-2.435-.072-2.917-.241-3.182-.4-.6-1.627-.518-2.194.157l-.313.374v5.521H1590Z" transform="translate(-1194.312 -749.741)" fill="#fff"/>
    <path id="Trazado_117" data-name="Trazado 117" d="M1892,1002.252v-5.484l.578-.1a22.217,22.217,0,0,1,2.435-.084,5.872,5.872,0,0,1,2.567.277,3.2,3.2,0,0,1,1.82,1.567,3.8,3.8,0,0,1-1.205,4.8,4.553,4.553,0,0,1-2.845.675l-1.181.012v3.809H1892Zm4.436-.193c.808-.362,1.157-1.4.916-2.64-.181-.88-1.374-1.458-2.64-1.278l-.542.084v1.953a12.916,12.916,0,0,0,.084,2.037A4.15,4.15,0,0,0,1896.436,1002.059Z" transform="translate(-1459.91 -726.773)" fill="#fff"/>
    <path id="Trazado_118" data-name="Trazado 118" d="M1968.024,1002.581l.036-5.521,3.291-.036,3.279-.024v1.688h-4.339v3.013h3.978v1.688h-3.978v3.013l2.206.024,2.194.036.036.82.036.808H1968Z" transform="translate(-1526.749 -727.139)" fill="#fff"/>
    <path id="Trazado_119" data-name="Trazado 119" d="M2126,1002.114v-5.484l.579-.1a18.408,18.408,0,0,1,4.87.121,3.324,3.324,0,0,1,2.049,1.639,2.806,2.806,0,0,1,.338,1.688,3.34,3.34,0,0,1-.964,2.64,5.112,5.112,0,0,1-3.941,1.157l-.639-.072v3.881H2126Zm4.387-.121a1.63,1.63,0,0,0,1.037-1.29c.338-1.374-.217-2.4-1.386-2.64a4.621,4.621,0,0,0-1.206-.06l-.542.084v1.953a12.941,12.941,0,0,0,.084,2.037A4.489,4.489,0,0,0,2130.387,1001.993Z" transform="translate(-1665.704 -726.636)" fill="#fff"/>
    <path id="Trazado_120" data-name="Trazado 120" d="M2203,1002.545V997h2.29v9.4h4.7v1.688H2203Z" transform="translate(-1733.423 -727.139)" fill="#fff"/>
    <path id="Trazado_121" data-name="Trazado 121" d="M2271,1002.545V997h6.629v1.688h-4.339v3.013h3.978v1.688h-3.978v3.013l2.206.024,2.194.036.036.82.036.808H2271Z" transform="translate(-1793.226 -727.139)" fill="#fff"/>
    <path id="Trazado_122" data-name="Trazado 122" d="M2450,1002.457V996.9l1.121.036,1.109.036.036,4.677.024,4.665h4.7V1008H2450Z" transform="translate(-1950.65 -727.051)" fill="#fff"/>
    <path id="Trazado_123" data-name="Trazado 123" d="M2519,1027.917V1024h2.17v7.835H2519Z" transform="translate(-2011.333 -750.884)" fill="#fff"/>
    <path id="Trazado_124" data-name="Trazado 124" d="M2338.313,999.363c-.169-.241-.156-.289.181-.591.337-.325.482-.844.229-.844s-.723-.6-.723-.952a1.217,1.217,0,0,1,1.037-.976c1.579,0,1.688,2.194.157,3.315C2338.711,999.688,2338.542,999.688,2338.313,999.363Z" transform="translate(-1852.15 -726.259)" fill="#fff"/>
    <path id="Trazado_125" data-name="Trazado 125" d="M2517.88,998a1.621,1.621,0,0,1-.88-.952c0-.8,1.278-1.29,2.158-.832a1.235,1.235,0,0,1,.494.53c.253.615-.205,1.133-1.085,1.254A2.169,2.169,0,0,1,2517.88,998Z" transform="translate(-2009.574 -726.297)" fill="#fff"/>
    <path id="Trazado_126" data-name="Trazado 126" d="M694.946,576.669c-3.785-.4-6.846-1.434-8.45-2.881a9.286,9.286,0,0,1-2.712-6.388l-.084-.976,6.316.024,6.316.036.072.663c.181,1.7,1.181,2.411,2.9,2.061a1.821,1.821,0,0,0,1.507-1.41c.253-.8.386-6.437.157-6.437a4.544,4.544,0,0,0-1.013.651,10.633,10.633,0,0,1-8.028,2.254c-4.134-.482-6.871-2.712-7.7-6.28-.47-2-.518-3.218-.458-14.042.036-9.956.048-10.414.289-11.511a8.87,8.87,0,0,1,2.387-4.906,7.262,7.262,0,0,1,3.435-1.929,14.355,14.355,0,0,1,5.46.06,9.986,9.986,0,0,1,4.448,2.7,4.515,4.515,0,0,0,.964.82,4.224,4.224,0,0,0,.591-1.531l.434-1.543,6.039-.036,6.051-.024v19.31c0,18.707-.048,21.877-.374,23.215a10.564,10.564,0,0,1-1.856,3.363c-2,2.5-5.243,4.038-9.7,4.617A52.378,52.378,0,0,1,694.946,576.669Zm4.773-20.069c.579-.241.868-.928,1.025-2.5.072-.8.108-4.629.084-10.463-.048-10.065-.048-10.017-.735-10.535a1.7,1.7,0,0,0-1.169-.253c-1.314,0-1.8.506-2.049,2.17-.2,1.3-.109,19.973.108,20.612a1.564,1.564,0,0,0,.8,1.037A3.684,3.684,0,0,0,699.719,556.6Z" transform="translate(-397.254 -312.353)" fill="#fff"/>
    <path id="Trazado_127" data-name="Trazado 127" d="M2181.9,569.415c-3.339-.494-5.8-1.917-6.774-3.917-.916-1.88-1.121-3.411-1.121-8.245,0-4.086.133-5.436.639-6.846a4.483,4.483,0,0,1,1.76-2.387,39.255,39.255,0,0,1,7-3.423,36.036,36.036,0,0,0,6.376-3.05c.506-.506.627-1.049.7-3.291.109-3.146-.193-4.93-.94-5.617a2.238,2.238,0,0,0-2.5-.072c-.591.434-.651.94-.711,5.436l-.06,4.122H2174v-2.592c0-5.87.735-8.5,3.026-10.788,2.917-2.9,6.437-4.146,11.861-4.146a22.1,22.1,0,0,1,6.2.663,10.443,10.443,0,0,1,7.606,6.449,24.8,24.8,0,0,1,.735,4.87c.1,1.061.156,6.895.193,16.851l.06,15.212h-12.8V566.9a8.985,8.985,0,0,0-.084-1.748,3.026,3.026,0,0,0-.579.735,8.038,8.038,0,0,1-4.58,3.3,16.354,16.354,0,0,1-3.737.229Zm7.232-7.654a1.484,1.484,0,0,0,1.157-1.133c.181-.579.313-12.476.133-12.476a16.189,16.189,0,0,0-2.82,2.5c-1.037,1.374-1.242,2.375-1.242,6.063a20.619,20.619,0,0,0,.169,3.423,2.018,2.018,0,0,0,1.917,1.748A3.229,3.229,0,0,0,2189.127,561.761Z" transform="translate(-1707.918 -311.68)" fill="#fff"/>
    <path id="Trazado_128" data-name="Trazado 128" d="M2666.648,569.405c-5.171-.518-8.606-2.121-10.788-5-2.435-3.23-2.76-5.376-2.76-17.767,0-8.57.157-10.933.916-13.56,1.29-4.484,4.87-7.329,10.4-8.281a28.066,28.066,0,0,1,7.244.06,13.258,13.258,0,0,1,7.883,3.929,11.107,11.107,0,0,1,3.194,6.232c.434,2.133.506,3.074.567,7.919l.06,4.846h-17.14v4.858c0,8.4.181,9.161,2.17,9.173,1.266.012,1.977-.651,2.3-2.158.072-.325.156-2.483.193-4.785l.06-4.195h12.427l-.072,3.532c-.073,3.857-.217,5.231-.748,6.714a13.041,13.041,0,0,1-2.941,4.629,11.97,11.97,0,0,1-7.244,3.628A40.248,40.248,0,0,1,2666.648,569.405Zm3.532-30.906a18.184,18.184,0,0,0-.422-5.4,1.421,1.421,0,0,0-1.531-.88c-.856,0-1.362.265-1.591.82-.3.711-.591,7.413-.325,7.678a15.16,15.16,0,0,0,1.953.048l1.88-.036Z" transform="translate(-2129.269 -311.67)" fill="#fff"/>
    <path id="Trazado_129" data-name="Trazado 129" d="M1297.667,569.654a10.549,10.549,0,0,1-4.713-2.314c-1.145-1.133-1.832-2.977-2.109-5.581a64.687,64.687,0,0,1,.181-9.462,7.194,7.194,0,0,1,1.085-2.712c.844-1.169,3.423-2.591,8.088-4.46a33.774,33.774,0,0,0,6.292-2.977c.615-.579.7-1.085.7-4.315,0-3.134-.133-4-.7-4.629-.771-.844-2.616-.808-3.122.06-.325.554-.458,2.242-.458,5.93v3.279H1290.7l.072-3.038a23.376,23.376,0,0,1,.687-6.244c1.085-3.833,5-6.871,10.065-7.787a34.166,34.166,0,0,1,6.834-.181c4.05.386,6.666,1.471,8.835,3.676a8.6,8.6,0,0,1,2.58,5.436c.362,2.941.41,4.556.458,19.443l.06,15.332h-12.681V567.3c0-1.531-.024-1.808-.181-1.808-.1,0-.181.048-.181.108a10.331,10.331,0,0,1-2.013,2.459,8.2,8.2,0,0,1-3.255,1.579A13.637,13.637,0,0,1,1297.667,569.654Zm8.823-7.606c.675-.506.687-.639.735-7.3.036-5.653.024-6.123-.157-6.123-.506,0-2.965,2.326-3.423,3.23a11.731,11.731,0,0,0-.7,4.424c-.121,3.652.229,5.4,1.169,5.882A3,3,0,0,0,1306.49,562.048Z" transform="translate(-931.088 -312.148)" fill="#fff"/>
    <path id="Trazado_130" data-name="Trazado 130" d="M232,478.222V451.8l8.655.06c8.413.06,10.077.133,12.9.506,4.388.6,7.28,2.447,8.811,5.641,1.133,2.338,1.121,2.23,1.181,19.611.06,15.609.012,17.912-.446,20.154-.8,3.857-3.484,5.954-8.5,6.617-.735.1-4.6.157-11.837.193l-10.764.06ZM248.188,495.4a2.123,2.123,0,0,0,1.386-1.35c.422-1.422.446-2.158.446-16.55,0-13.175-.012-14.211-.217-14.85-.422-1.374-1.1-1.784-3.062-1.88l-1.242-.06v35.028l1.061-.072A8.009,8.009,0,0,0,248.188,495.4Z" transform="translate(0 -247.655)" fill="#fff"/>
    <path id="Trazado_131" data-name="Trazado 131" d="M535,552.636V531h13.38v43.273H535Z" transform="translate(-266.477 -317.309)" fill="#fff"/>
    <path id="Trazado_132" data-name="Trazado 132" d="M975,552.636V531h13.38v43.273H975Z" transform="translate(-653.441 -317.309)" fill="#fff"/>
    <path id="Trazado_133" data-name="Trazado 133" d="M1119.764,531.938c-3.05-.2-4.4-.711-5.882-2.206a5.51,5.51,0,0,1-1.7-2.965c-.289-1.326-.41-6.871-.41-18.9V496.5H1109v-6.63h2.772V483h13.138v6.871h3.5v6.63h-3.5v13.235c0,13.331.036,14.549.434,14.983.241.265.783.374,2.338.458l1.266.072.036,3.411.024,3.4-3.942-.012C1122.886,532.034,1120.511,531.986,1119.764,531.938Z" transform="translate(-771.29 -275.095)" fill="#fff"/>
    <path id="Trazado_134" data-name="Trazado 134" d="M1575,478.4V452h13.5v52.795H1575Z" transform="translate(-1181.12 -247.831)" fill="#fff"/>
    <path id="Trazado_135" data-name="Trazado 135" d="M1713.059,503.807c0-.181-6.027-52.023-6.087-52.409l-.072-.4h13.391v.338c0,.181.41,5.509.9,11.837s1.1,13.958,1.326,16.935c.446,5.689.518,6.509.615,6.413.036-.036.145-1.193.241-2.567.53-7.75,1.953-20.961,3.375-31.472l.2-1.483h14.187l.06.277c.133.615,1.3,14.959,2.17,26.6.663,9.028.759,10.077.856,9.968.024-.024.193-1.917.349-4.195.723-9.9,1.651-18.984,2.905-28.278.289-2.206.53-4.086.53-4.195,0-.157.735-.181,6.7-.181h6.7l-.072.458c-.036.241-1.4,11.969-3.026,26.06s-2.977,25.795-3.013,26.012l-.072.386h-17.092l-.12-.627c-.988-4.942-2.423-14.211-3.447-22.263-.289-2.338-.554-4.291-.591-4.315-.1-.1-.145.229-.675,4.3-.422,3.158-1.41,10.342-2.917,21.009l-.265,1.892h-8.534C1716.9,503.915,1713.059,503.867,1713.059,503.807Z" transform="translate(-1297.121 -246.952)" fill="#fff"/>
    <path id="Trazado_136" data-name="Trazado 136" d="M2458,546.48V524.844h6.569c3.616,0,6.569.036,6.569.1s-.108,1.217-.241,2.6a19.243,19.243,0,0,0-.157,2.592c.036.036.1.012.12-.072a23.056,23.056,0,0,1,1.868-2.845,9.077,9.077,0,0,1,5.738-3.146l.506-.072v15.164l-.807.072a16.619,16.619,0,0,0-3.484.554,4.617,4.617,0,0,0-2.929,2.579c-.482,1.3-.518,2.218-.579,14.211l-.06,11.535H2458Z" transform="translate(-1957.686 -311.153)" fill="#fff"/>
    <path id="Trazado_137" data-name="Trazado 137" d="M1440.984,215.355c3.026-3.339,4.725-5.954,5.484-8.45,1.941-6.34-2.206-11.644-12.162-15.609-9.45-3.761-23.818-6.244-42.308-7.317-7.618-.434-9.655-.482-21.938-.482-12.174,0-14.705.048-23.746.494-36.848,1.772-75.625,7.268-107.157,15.188-2.218.554-4.171,1.037-4.339,1.085-1.266.277,5.159-2.146,9.9-3.749,27.109-9.149,69.007-18.2,105.518-22.769,13.657-1.712,25.18-2.724,38.21-3.327,4.448-.217,16.586-.289,20.913-.133,28.278,1.025,45.394,6.5,52.253,16.706a16.03,16.03,0,0,1,1.977,4.207c1.386,7.8-3.929,15.1-15.6,21.443a62.609,62.609,0,0,1-7.606,3.459,3.441,3.441,0,0,1,.6-.747Z" transform="translate(-881.8)" fill="#fff"/>
    <path id="Trazado_138" data-name="Trazado 138" d="M535,455.375V452h13.38v6.75H535Z" transform="translate(-266.477 -247.831)" fill="#fff"/>
    <path id="Trazado_139" data-name="Trazado 139" d="M975,455.375V452h13.38v6.75H975Z" transform="translate(-653.441 -247.831)" fill="#fff"/>
  </g>
</svg>
