<svg xmlns="http://www.w3.org/2000/svg" width="350" height="115.36" viewBox="0 0 350 115.36">
  <g id="logo-kactus-hcm-estandar" transform="translate(0 -2.026)">
    <g id="Grupo_1" data-name="Grupo 1" transform="translate(0.802 67.635)">
      <path id="Trazado_1" data-name="Trazado 1" d="M4514.266,1751.95c-.6-.14-.955-.292-.955-.4a1.785,1.785,0,0,1,.383-.857,5.612,5.612,0,0,1,.632.17,6.41,6.41,0,0,0,3.117-.018,2.545,2.545,0,0,0,.571-.322c.364-.34.583-1.841.28-1.841a.462.462,0,0,0-.28.134c-.541.535-2.686.717-3.816.334-1.246-.425-1.8-1.367-1.8-3.081a3.263,3.263,0,0,1,1-2.649,3.9,3.9,0,0,1,2.09-.936,9.868,9.868,0,0,1,3.5.091l.706.121.03,3.67c.031,4.114.013,4.247-.656,4.843-.717.626-1.105.723-2.947.754a18.277,18.277,0,0,1-1.859-.018Zm2.977-3.725a3.2,3.2,0,0,0,.626-.431c.5-.462.571-.784.571-2.589v-1.641l-.371-.073a7.16,7.16,0,0,0-2.758.091,2.314,2.314,0,0,0-1.4,2.437c0,1.148.341,1.854,1.039,2.163a3.764,3.764,0,0,0,2.3.042Z" transform="translate(-4239.002 -1702.227)" fill="#1d1d1b"/>
      <path id="Trazado_2" data-name="Trazado 2" d="M153.091,1752.776a1.759,1.759,0,0,1,.049-.522l.1-.456.6-.012a1.3,1.3,0,0,0,1.349-.784,1.071,1.071,0,0,0,.134-1.167c-.079-.14-.371-.687-.644-1.209-.51-.966-.735-1.38-1.337-2.467-.182-.334-.553-1.039-.826-1.562s-.553-1.015-.6-1.075c-.079-.1.079-.134.753-.134h.863l.565,1.155c1.416,2.971,1.653,3.452,1.823,3.956.1.279.243.522.3.522s.158-.188.231-.425a7.135,7.135,0,0,1,.523-1.428.462.462,0,0,0,.091-.249,1.151,1.151,0,0,1,.134-.413,8.951,8.951,0,0,0,.371-.905,6.913,6.913,0,0,1,.3-.753,5.03,5.03,0,0,0,.31-.778l.243-.687h.723c.826,0,.8-.073.31.924a4.473,4.473,0,0,0-.28.674,4.039,4.039,0,0,1-.3.674,5.578,5.578,0,0,0-.3.675,3.412,3.412,0,0,1-.243.6c-.219.462-.523,1.155-.753,1.732-.049.109-.3.656-.571,1.209-1.148,2.382-1.768,2.972-3.148,2.972a2.332,2.332,0,0,1-.753-.079Z" transform="translate(-143.466 -1703.174)" fill="#1d1d1b"/>
      <path id="Trazado_3" data-name="Trazado 3" d="M566.3,1746.344v-4.728l.48.03c.444.03.48.049.583.383.061.188.158.365.231.383a1.139,1.139,0,0,0,.492-.261,3.047,3.047,0,0,1,2.352-.662,4.431,4.431,0,0,1,1.361.134,4.027,4.027,0,0,1,1.179.663,4.157,4.157,0,0,1,.7,3.634,3.344,3.344,0,0,1-2.151,2.394,6.82,6.82,0,0,1-3.664,0c-.14-.049-.158.091-.158,1.361v1.416H566.3v-4.746Zm4.375,1.106a.445.445,0,0,1,.273-.091,1.52,1.52,0,0,0,.626-.431,1.988,1.988,0,0,0,.6-1.106,2.809,2.809,0,0,0,.03-1.8c-.279-.906-.48-1.155-1.148-1.416a3.906,3.906,0,0,0-2.145-.031,2.277,2.277,0,0,0-1.039,1.057,5.156,5.156,0,0,0-.158,1.963v1.628l.535.17c.279.091.614.188.723.213a4.985,4.985,0,0,0,1.714-.152Z" transform="translate(-532.69 -1701.397)" fill="#1d1d1b"/>
      <path id="Trazado_4" data-name="Trazado 4" d="M3987.264,1703.358a5.9,5.9,0,0,1-3.834-2.443,3.736,3.736,0,0,1-.766-2.765,3,3,0,0,1,.432-1.768,6.119,6.119,0,0,1,3.755-2.88,7.074,7.074,0,0,1,4.405.292,1.719,1.719,0,0,0,.365.152,4.264,4.264,0,0,1,.6.322,5.736,5.736,0,0,1,2.242,2.747,5.049,5.049,0,0,1,.061,2.564,4.34,4.34,0,0,1-1.367,2.151,6.537,6.537,0,0,1-2.868,1.568A10,10,0,0,1,3987.264,1703.358Zm2.625-.978a2.959,2.959,0,0,0,.754-.183,1.018,1.018,0,0,1,.352-.158,5.281,5.281,0,0,0,1.592-1.057,3.6,3.6,0,0,0,.954-3.683,3.016,3.016,0,0,0-1-1.5,3.762,3.762,0,0,0-1.349-.984,5.858,5.858,0,0,0-6.337.833,3.466,3.466,0,0,0-.6,4.788A5.594,5.594,0,0,0,3989.889,1702.379Z" transform="translate(-3741.448 -1656.126)" fill="#1d1d1b"/>
      <path id="Trazado_5" data-name="Trazado 5" d="M4033.62,1732.373a3,3,0,0,1-1.185-.978,2.628,2.628,0,0,1,0-2.656c.049-.061.17-.213.25-.334a3.4,3.4,0,0,1,1.628-.954,4.238,4.238,0,0,1,2.084-.042c.425.091.511.152.511.334,0,.37-.188.444-.893.365-1.689-.2-2.826.541-2.826,1.859a1.918,1.918,0,0,0,1.289,1.853,4.621,4.621,0,0,0,2.042,0c.261-.14.3-.1.322.31.018.292-.019.34-.28.4a9.616,9.616,0,0,1-1.361.079,2.739,2.739,0,0,1-1.58-.243Z" transform="translate(-3787.865 -1688.071)" fill="#1d1d1b"/>
      <path id="Trazado_6" data-name="Trazado 6" d="M4748.617,1726.317a1.482,1.482,0,0,1-1.04-.687c-.212-.34-.219-.492-.249-2.8l-.042-2.443H4745.9v-1.009h1.41v-.7c0-.6.018-.705.182-.705a4.023,4.023,0,0,0,.705-.14l.522-.134v1.677h2.516v1.009h-2.516v2.115a7.334,7.334,0,0,0,.152,2.412c.2.395.717.535,1.506.4.857-.14.894-.134,1.045.213.183.413.091.48-.917.705a3.657,3.657,0,0,1-1.89.079Z" transform="translate(-4458.314 -1679.054)" fill="#1d1d1b"/>
      <path id="Trazado_7" data-name="Trazado 7" d="M5021.785,1717.9a1.624,1.624,0,0,1-.723-.456l-.261-.31V1708.8h1.313v3.713a35.187,35.187,0,0,0,.109,4.017c.133.395.565.535,1.331.456l.523-.049.109.413a1.177,1.177,0,0,1,.08.413c-.013,0-.383.073-.815.152a2.442,2.442,0,0,1-1.659-.012Z" transform="translate(-4716.509 -1670.695)" fill="#1d1d1b"/>
      <path id="Trazado_8" data-name="Trazado 8" d="M5641.457,1749.149a3,3,0,0,1-2.576-2.394,3.628,3.628,0,0,1,1.549-4.144,6.212,6.212,0,0,1,2.3-.51,5.156,5.156,0,0,1,2.363.583,3.964,3.964,0,0,1,.657.662c.261.371.292.492.322,1.44l.043,1.039h-5.955l.061.432a2.128,2.128,0,0,0,2.1,1.981c1.118.14,2.686-.134,2.917-.5.042-.061.183.109.31.365s.212.5.17.541a8.725,8.725,0,0,1-3.1.693,6.188,6.188,0,0,1-1.154-.182Zm3.318-4.576a1.051,1.051,0,0,0-.37-.857,1.377,1.377,0,0,0-1.016-.535,3.449,3.449,0,0,0-2.394.37,2.358,2.358,0,0,0-.748,1.319c0,.121.383.14,2.267.14h2.267v-.444Z" transform="translate(-5296.915 -1701.972)" fill="#1d1d1b"/>
      <path id="Trazado_9" data-name="Trazado 9" d="M4253.427,1716.777l-1.027-.042.019-4.545.029-4.545,2.3-.03a10.484,10.484,0,0,1,3.111.182,5.535,5.535,0,0,1,1.088.4,1.186,1.186,0,0,0,.371.2,4.446,4.446,0,0,1,1.458,1.531,4.541,4.541,0,0,1-2.8,6.575,10.531,10.531,0,0,1-2.82.334c-.383-.012-1.166-.042-1.737-.049Zm3.592-1.2a3.243,3.243,0,0,0,2.442-2.03,5.459,5.459,0,0,0,.012-2.765,3.427,3.427,0,0,0-1.689-1.732c-.571-.28-.687-.292-2.181-.334l-1.592-.043v7.061h1.2A8.3,8.3,0,0,0,4257.019,1715.58Z" transform="translate(-3994.801 -1669.576)" fill="#1d1d1b"/>
      <path id="Trazado_10" data-name="Trazado 10" d="M4857.405,1750.913a2.132,2.132,0,0,1-1.829-1.094,1.779,1.779,0,0,1,.906-2.406,6.624,6.624,0,0,1,4.107-.444l.335.061-.031-.766c-.042-.656-.079-.784-.291-.966a1.788,1.788,0,0,0-.583-.274,9.593,9.593,0,0,0-2.929.213c-.632.213-.8.152-.979-.383-.133-.365-.121-.371.141-.432a2.237,2.237,0,0,0,.442-.14,12.531,12.531,0,0,1,3.172-.273,4.622,4.622,0,0,1,1.289.261,1.9,1.9,0,0,1,1.106,1.167c.042.158.049,1.3.03,2.516s.012,2.382.048,2.595l.079.371h-.48c-.474,0-.492-.012-.662-.4a2.7,2.7,0,0,1-.17-.5c0-.17-.28-.109-.48.1a3.185,3.185,0,0,1-1.653.753c-.292.042-.626.079-.736.091a5.347,5.347,0,0,1-.827-.049Zm2.485-1.155a3.154,3.154,0,0,0,.686-.5.943.943,0,0,0,.322-.875c0-.413-.043-.565-.158-.614a12.5,12.5,0,0,0-2.795.03.711.711,0,0,1-.334.158c-.432.1-.632.425-.632.966a.918.918,0,0,0,.754,1,4.566,4.566,0,0,0,2.163-.158Z" transform="translate(-4561.135 -1703.754)" fill="#1d1d1b"/>
      <path id="Trazado_11" data-name="Trazado 11" d="M5156.491,1717.638c-.079-.243-.322-.906-.522-1.489s-.432-1.185-.5-1.361c-.219-.535-1.258-3.342-1.258-3.433a3.361,3.361,0,0,0-.2-.492,2.435,2.435,0,0,1-.2-.565.373.373,0,0,0-.061-.219,9.186,9.186,0,0,1-.443-1.148,4.954,4.954,0,0,1,.8-.031h.784l.322.833a8.207,8.207,0,0,1,.311.936,1.3,1.3,0,0,0,.139.365,3.225,3.225,0,0,1,.213.6,2.257,2.257,0,0,0,.139.431,6.006,6.006,0,0,1,.3.8c.121.4.261.8.31.905a6.5,6.5,0,0,1,.462,1.714c.1.918.188.936.334.079a6.887,6.887,0,0,1,.31-1.185c.091-.219.231-.565.3-.753.133-.34.424-1.045.6-1.458.262-.571.493-1.155.656-1.61.1-.273.212-.541.249-.6a4.429,4.429,0,0,0,.243-.571c.17-.474.188-.48.6-.48h.425l.371.936c.923,2.333,1.659,4.126,1.9,4.648a8.747,8.747,0,0,1,.249,1.009c.17.863.244,1.045.244.626a8.928,8.928,0,0,1,.5-2.084c1.046-3.281,1.241-3.9,1.319-4.077a5.753,5.753,0,0,0,.188-.626l.109-.432h.748c.8,0,.887.061.662.48-.049.091-.23.583-.414,1.075s-.364.984-.413,1.076a.935.935,0,0,0-.091.292,1.622,1.622,0,0,1-.139.425c-.079.182-.249.644-.371,1.027a6.837,6.837,0,0,1-.292.8,1.563,1.563,0,0,0-.152.353c-.073.261-.613,1.8-.753,2.163-.043.109-.183.48-.3.833l-.218.626h-.443c-.395,0-.462-.03-.541-.273-.062-.158-.152-.371-.2-.48s-.261-.632-.456-1.155-.4-1.045-.456-1.155-.25-.6-.456-1.106-.4-1-.456-1.106a6.2,6.2,0,0,1-.231-.656c-.079-.249-.2-.644-.273-.887l-.134-.431-.133.292a4.23,4.23,0,0,0-.188.735,2.269,2.269,0,0,1-.14.541,5.119,5.119,0,0,0-.261.6,7.534,7.534,0,0,1-.31.8c-.073.17-.292.717-.493,1.209s-.4,1-.456,1.106-.188.456-.3.754c-.456,1.185-.462,1.209-.954,1.209-.426,0-.444-.012-.583-.425Z" transform="translate(-4840.958 -1670.789)" fill="#1d1d1b"/>
      <path id="Trazado_12" data-name="Trazado 12" d="M5389.612,1750.913a2.394,2.394,0,0,1-1.72-.863,1.275,1.275,0,0,1-.292-1.009,1.222,1.222,0,0,1,.3-1,4.716,4.716,0,0,1,4.1-1.155c1.04.122,1.088.1,1.088-.492,0-.687-.17-1.076-.572-1.258-.3-.152-.571-.17-1.58-.134a6.806,6.806,0,0,0-1.415.152,2.2,2.2,0,0,1-.6.17c-.4.073-.4.061-.583-.352a1.376,1.376,0,0,1-.152-.444,7.307,7.307,0,0,1,2.272-.48c2.1-.188,3.282.1,3.792.954.188.31.2.522.2,2.9a25.592,25.592,0,0,0,.091,2.8c.079.231.073.231-.456.2s-.541-.043-.644-.4c-.183-.662-.4-.7-.966-.158a4.189,4.189,0,0,1-2.856.571Zm2.163-1.069a2.606,2.606,0,0,0,.875-.492c.333-.31.34-.352.31-.966l-.031-.632-1.246-.031c-1.951-.042-2.577.249-2.577,1.209,0,.431.042.535.3.735a2.84,2.84,0,0,0,2.363.182Z" transform="translate(-5061.021 -1703.754)" fill="#1d1d1b"/>
      <path id="Trazado_13" data-name="Trazado 13" d="M15.163,1716.4c-.219-.018-.753-.121-1.179-.213l-.784-.17V1707.3h1.41v1.507a7.9,7.9,0,0,0,.079,1.507.657.657,0,0,0,.273-.2,3.259,3.259,0,0,1,.747-.474,2.674,2.674,0,0,1,1.471-.273,3.212,3.212,0,0,1,2.619.893,3.118,3.118,0,0,1,.857,2.5,3.271,3.271,0,0,1-2.546,3.433,11.134,11.134,0,0,1-2.941.2Zm2.364-1.106c1.124-.395,1.55-1.069,1.55-2.5a2.409,2.409,0,0,0-.632-1.951,2.449,2.449,0,0,0-2.425-.34,2.157,2.157,0,0,0-1.167.954c-.231.365-.243.462-.243,2.072v1.7l.431.1a6.067,6.067,0,0,0,2.485-.03Z" transform="translate(-13.2 -1669.286)" fill="#1d1d1b"/>
      <path id="Trazado_14" data-name="Trazado 14" d="M370.445,1713.391a5.343,5.343,0,0,1-2.589-1.337c-1.428-1.477-1.446-4.952-.043-6.478a4.935,4.935,0,0,1,3.822-1.477c2.467.012,4.023.978,4.7,2.917a7.834,7.834,0,0,1,.018,3.421,4.764,4.764,0,0,1-.857,1.562,4.38,4.38,0,0,1-3.6,1.41,13.98,13.98,0,0,1-1.458-.012Zm2.868-1.361a3.243,3.243,0,0,0,1.659-3.19c0-2.273-1.276-3.64-3.379-3.64a2.925,2.925,0,0,0-2.85,1.653,5.9,5.9,0,0,0-.31,1.2,3.228,3.228,0,0,0,.049,1.592,3.074,3.074,0,0,0,2.133,2.607,5.767,5.767,0,0,0,2.7-.213Z" transform="translate(-345.288 -1666.281)" fill="#1d1d1b"/>
      <path id="Trazado_15" data-name="Trazado 15" d="M891.113,1748.418a3.253,3.253,0,0,1-2.382-1.738,3.4,3.4,0,0,1-.231-1.671c0-1.458.14-1.859.905-2.619a3.551,3.551,0,0,1,3.02-1c1.689.012,2.333.279,2.99,1.227.3.444.322.511.322,1.428l.012.954-2.959.031-2.959.018.073.511a2.047,2.047,0,0,0,1.27,1.719,4.924,4.924,0,0,0,3.591-.249c.158-.121.273-.042.523.383.231.4.261.371-.693.754a4.771,4.771,0,0,1-1.914.249,13.679,13.679,0,0,1-1.562-.012Zm3.251-4.721a1.4,1.4,0,0,0-.243-.766,3.072,3.072,0,0,0-3.16-.31,1.643,1.643,0,0,0-1.009,1.361v.274H894.4l-.043-.553Z" transform="translate(-835.312 -1701.307)" fill="#1d1d1b"/>
      <path id="Trazado_16" data-name="Trazado 16" d="M1052.263,1716.218a2.427,2.427,0,0,1-.553-.365l-.249-.219-.03-4.217-.031-4.217h1.41l.03,3.907c.043,4.63-.049,4.308,1.2,4.278l.778-.018.049.371a.825.825,0,0,1,.018.4A5.429,5.429,0,0,1,1052.263,1716.218Z" transform="translate(-988.313 -1669.192)" fill="#1d1d1b"/>
      <path id="Trazado_17" data-name="Trazado 17" d="M1207.511,1749.141c-1.227-.2-2.011-.924-2.011-1.872s.662-1.61,2.06-2.06a7.769,7.769,0,0,1,1.945-.122l1.531.018v-.565c0-.966-.292-1.24-1.47-1.41a9.615,9.615,0,0,0-2.607.365.812.812,0,0,1-.322.122c-.182.049-.231.012-.28-.231a.766.766,0,0,0-.158-.34c-.152-.1-.1-.322.091-.4a9.584,9.584,0,0,1,4.728-.261c.766.279,1.057.522,1.276,1.057a9.6,9.6,0,0,1,.122,2.747,24.4,24.4,0,0,0,.061,2.674l.073.273h-1.069l-.122-.425c-.2-.748-.249-.766-.754-.322a4.128,4.128,0,0,1-3.087.754Zm2.175-1.088a2.195,2.195,0,0,0,.626-.3.439.439,0,0,1,.219-.134c.34,0,.565-1.531.243-1.653a11.74,11.74,0,0,0-2.8.049,1.111,1.111,0,0,0-.784,1.671,2.5,2.5,0,0,0,2.5.365Z" transform="translate(-1133.049 -1702.061)" fill="#1d1d1b"/>
      <path id="Trazado_18" data-name="Trazado 18" d="M4444.5,1748.821V1745.4h1.409v6.842H4444.5Z" transform="translate(-4175.229 -1705.071)" fill="#1d1d1b"/>
      <path id="Trazado_19" data-name="Trazado 19" d="M4686.3,1748.821V1745.4h1.507v6.842H4686.3Z" transform="translate(-4402.335 -1705.071)" fill="#1d1d1b"/>
      <path id="Trazado_20" data-name="Trazado 20" d="M5547.4,1746.157v-3.421l.523.031.535.03.091.431c.049.231.134.425.182.425a1.088,1.088,0,0,0,.383-.273,2.033,2.033,0,0,1,1.148-.687,1.788,1.788,0,0,1,1.125-.049c.534.109.553.134.492.371-.03.14-.079.37-.109.522-.049.261-.061.261-.923.231-.767-.018-.924,0-1.27.2-.723.425-.766.614-.766,3.269v2.345h-1.41v-3.427Z" transform="translate(-5211.109 -1702.419)" fill="#1d1d1b"/>
      <path id="Trazado_21" data-name="Trazado 21" d="M728.506,1711.827V1707.3h1.41v1.507a4.146,4.146,0,0,0,.109,1.507,1.827,1.827,0,0,0,.535-.3,3.39,3.39,0,0,1,2.376-.656,3.338,3.338,0,0,1,1.507.2c1.148.51,1.306,1.076,1.306,4.5v2.3h-1.41v-2.382c0-2.3-.012-2.412-.231-2.8-.541-.978-2.09-1.124-3.312-.322-.826.541-.887.784-.887,3.33v2.176H728.5v-4.527Z" transform="translate(-685.034 -1669.286)" fill="#1d1d1b"/>
      <path id="Trazado_22" data-name="Trazado 22" d="M1140.9,1747.121V1743.7h1.507v6.842H1140.9Z" transform="translate(-1072.374 -1703.474)" fill="#1d1d1b"/>
      <path id="Trazado_23" data-name="Trazado 23" d="M4439.886,1708.092c-.492-.523-.091-1.185.735-1.2.887-.018,1.349.662.8,1.179A1.25,1.25,0,0,1,4439.886,1708.092Z" transform="translate(-4170.693 -1668.905)" fill="#1d1d1b"/>
      <path id="Trazado_24" data-name="Trazado 24" d="M4682.629,1707.872c-.444-.371-.48-.492-.292-.826.443-.748,1.951-.492,1.951.334a.81.81,0,0,1-.262.425,1.241,1.241,0,0,1-1.4.073Z" transform="translate(-4398.512 -1668.631)" fill="#1d1d1b"/>
      <path id="Trazado_25" data-name="Trazado 25" d="M1138.1,1705.424c-.322-.134-.4-.273-.4-.674,0-.261.061-.365.334-.522a1.08,1.08,0,0,1,1.5.243c.243.292.219.48-.061.754a1.485,1.485,0,0,1-1.367.2Z" transform="translate(-1069.369 -1666.213)" fill="#1d1d1b"/>
      <path id="Trazado_26" data-name="Trazado 26" d="M4966.123,1109.007a11.73,11.73,0,0,1-4.283-1.106,5.743,5.743,0,0,1-3.026-3.4c-.188-.754-.292-1.215-.4-1.768-.158-.845-.243-11.6-.1-13.794a14.182,14.182,0,0,1,.231-2.084,6.881,6.881,0,0,1,.862-1.659,5.771,5.771,0,0,1,1.44-1.519,8.2,8.2,0,0,1,1.045-.626,12.152,12.152,0,0,1,2.516-.948c.17-.049,1.016-.17,1.885-.261a10.706,10.706,0,0,1,3.116,0,12.857,12.857,0,0,1,3.391.674c2.237.814,3.652,2.054,4.218,3.652.474,1.361.535,1.8.595,4.721l.062,2.789h-8.155l-.049-3.239c-.061-3.64-.091-3.822-.753-4.144a1.682,1.682,0,0,0-2.006.474c-.183.31-.188.6-.188,8.635s.013,8.319.188,8.671a1.326,1.326,0,0,0,1.337.644c.718-.1.924-.243,1.148-.747.188-.432.213-.754.262-3.172l.061-2.7h8.155l-.062,2.194a13.826,13.826,0,0,1-.462,3.944,5.169,5.169,0,0,1-2.284,2.971,9.851,9.851,0,0,1-5.3,1.811A11.211,11.211,0,0,1,4966.123,1109.007Z" transform="translate(-4657.749 -1081.725)" fill="#1d1d1b"/>
      <path id="Trazado_27" data-name="Trazado 27" d="M4595.2,1104.432V1091.3h8.252v9.358h2.516V1091.3h8.155v26.263h-8.155v-11.072h-2.516v11.072H4595.2Z" transform="translate(-4316.771 -1090.718)" fill="#1d1d1b"/>
      <path id="Trazado_28" data-name="Trazado 28" d="M5327.1,1104.338v-13.131h10.646l.122.723c.061.4.183,1.094.262,1.537.139.784.3,1.8.595,3.573.08.474.212,1.27.3,1.762.262,1.379.583,3.19.747,4.126.091.541.183.3.371-1.009.079-.553.213-1.44.292-1.963s.212-1.391.291-1.914c.152-.984.365-2.333.626-4.077.091-.553.213-1.392.273-1.859l.122-.857,5.365-.03,5.354-.018v26.263h-7.116l-.061-5.049c-.042-2.789-.079-6.672-.079-8.635a26.533,26.533,0,0,0-.091-3.172c-.042.219-.152.857-.243,1.41s-.219,1.44-.31,1.963-.218,1.392-.3,1.914-.219,1.38-.3,1.89-.219,1.349-.3,1.859-.212,1.361-.3,1.884c-.152.936-.3,1.859-.6,3.755-.073.5-.188,1.2-.243,1.531s-.109.614-.109.632-1.148.018-2.546.018H5337.3l-.122-.778c-.182-1.2-.644-3.816-.814-4.709-.049-.273-.17-.936-.261-1.458s-.219-1.3-.291-1.714-.213-1.185-.3-1.714-.231-1.331-.31-1.781-.2-1.209-.28-1.659c-.383-2.206-.474-2.674-.554-3.05-.048-.243-.091,2.971-.1,8.234l-.012,8.623H5327.1v-13.12Z" transform="translate(-5004.196 -1090.624)" fill="#1d1d1b"/>
      <path id="Trazado_29" data-name="Trazado 29" d="M4381.6,1252.713V1250.3h8.252v4.825H4381.6Z" transform="translate(-4116.151 -1240.056)" fill="#1d1d1b"/>
    </g>
    <g id="Grupo_2" data-name="Grupo 2" transform="translate(1.199 2.026)">
      <path id="Trazado_30" data-name="Trazado 30" d="M283.985,51.488a4.948,4.948,0,0,1,.535-.431c.28-.213.571-.444.626-.5s.3-.261.553-.456a40.11,40.11,0,0,0,4.539-4.478,17.516,17.516,0,0,0,2.534-4.327,7.758,7.758,0,0,0-.273-5.985,2.165,2.165,0,0,0-.28-.48c-.049-.018-.079-.1-.079-.182s-.043-.14-.1-.14a.129.129,0,0,1-.1-.134.71.71,0,0,0-.17-.34c-.1-.122-.444-.535-.766-.918a13.37,13.37,0,0,0-2.534-2.3,23.079,23.079,0,0,0-2.947-1.841.154.154,0,0,1-.14-.073,19.1,19.1,0,0,0-2.443-1.24c-.273-.122-.6-.249-.7-.3-.918-.4-3.774-1.507-3.913-1.507a1.715,1.715,0,0,1-.4-.14,25.56,25.56,0,0,0-2.8-.863.361.361,0,0,1-.231-.073,1.9,1.9,0,0,0-.541-.2c-.261-.061-.723-.188-1.027-.273-1.379-.383-2.273-.614-3.573-.924-.723-.158-1.629-.383-2.267-.541-1.185-.28-4.879-1.015-7.444-1.471-2.886-.5-6.721-1.076-10.063-1.5-.632-.079-1.471-.188-1.859-.249-5.159-.766-18.795-1.884-28.122-2.3-1.185-.061-3.142-.152-4.327-.213-2.655-.14-7.025-.261-14.037-.413-6.2-.134-27.582-.061-31.9.1-1.55.061-4.466.158-6.49.213-11.612.334-25.838,1.088-38.842,2.06-3.269.243-5.827.444-6.946.553-.583.049-1.872.158-2.868.249-6.459.553-11.947,1.076-18.868,1.811-2.856.3-8.556.948-10.111,1.155-.383.049-1.288.158-2.011.249-2.959.365-5.341.662-9.358,1.2-1.762.231-5.1.7-6.538.905-.553.091-1.5.219-2.115.31s-1.537.219-2.06.3-1.246.188-1.61.249-1.076.182-1.592.261c-3.865.6-8.975,1.44-12.718,2.1-.492.079-1.27.219-1.738.3-1.793.322-2.528.456-2.971.553-.249.061-.814.158-1.258.243s-1.185.219-1.659.31-1.167.231-1.562.3c-.656.122-1.367.261-3.069.6-.365.073-1.015.2-1.458.292s-1.094.219-1.458.3c-1.069.231-2.212.474-2.941.626-1.568.322-2.06.431-2.443.535-.219.061-.747.182-1.155.273-.8.17-1.55.34-2.619.583-1.246.292-1.963.456-2.619.6-.365.079-.747.17-.857.213s-.091,0,.049-.061a4.255,4.255,0,0,1,.924-.395,3.239,3.239,0,0,0,.51-.188c.4-.182,1.094-.431,3.494-1.27.583-.2,1.148-.4,1.258-.456.188-.079,2.224-.723,4.43-1.41.553-.17,1.118-.352,1.258-.4s.6-.182,1.009-.3,1.088-.334,1.489-.462a5.312,5.312,0,0,1,.918-.243.38.38,0,0,0,.249-.073,1.9,1.9,0,0,1,.541-.2c.656-.158,1.477-.383,2.133-.583.3-.091.784-.219,1.057-.3s.753-.2,1.057-.28,1.094-.3,1.762-.474c2.163-.571,2.3-.614,4.576-1.215.413-.109,1.027-.273,1.361-.352s.857-.213,1.155-.292c1.088-.273,1.872-.474,2.467-.6.334-.079.893-.213,1.258-.3s.857-.2,1.106-.249.614-.14.8-.2.766-.188,1.258-.3,1.227-.28,1.61-.371.954-.219,1.258-.3.875-.219,1.258-.3,1-.219,1.361-.3.924-.2,1.258-.28c.778-.17,1.92-.425,2.82-.614s1.829-.395,2.668-.583c.924-.2,2.151-.462,2.917-.614.723-.152,2.054-.425,2.668-.565.219-.049.766-.158,1.209-.249s1.094-.219,1.458-.292,1.039-.213,1.507-.3,1.148-.231,1.507-.3c1.246-.249,2.364-.474,3.069-.6.395-.073,1.088-.2,1.562-.292l1.61-.31c.413-.079,1.136-.219,1.61-.3.766-.134,1.306-.231,2.917-.553.753-.14,2.224-.413,3.02-.553.413-.073,1.167-.213,1.659-.3s1.319-.231,1.811-.322,1.246-.213,1.659-.28,1.185-.213,1.714-.3,1.367-.231,1.859-.31,1.27-.219,1.714-.292c1.446-.243,2.8-.462,3.67-.6.474-.079,1.124-.188,1.458-.249.766-.14,2.352-.4,5.232-.845.553-.079,1.458-.219,2.011-.31s1.446-.219,1.993-.3c1.136-.17,2.576-.395,4.023-.6,1.167-.182,2.686-.4,4.1-.6,1.689-.243,3.251-.462,3.925-.565,2.546-.383,8.009-1.106,13.132-1.75.723-.091,1.829-.231,2.467-.3,1.659-.213,5.335-.644,7.65-.905.747-.079,1.7-.2,2.115-.249s1.367-.17,2.115-.249,2.011-.213,2.82-.3c2.09-.219,4.144-.431,5.888-.6.832-.079,2.212-.213,3.069-.3,5.044-.492,11.977-1.088,17.762-1.507,1.167-.091,2.674-.2,3.373-.261,4.752-.371,14.256-.887,20.174-1.094,1.61-.049,3.913-.152,5.135-.213,3.372-.158,21.049-.231,25.807-.1,5.262.14,8.714.273,10.664.413.857.061,2.3.152,3.221.2,3.1.188,7.65.565,9.71.8l2.212.243c4.223.474,9.2,1.185,12.53,1.811.413.079,1.045.188,1.41.249s.832.152,1.057.2.766.17,1.209.273c1.288.261,2.084.444,2.467.541.188.061,1.039.261,1.859.462s1.653.395,1.811.444.571.17.905.261c.632.17,1.027.28,2.267.644,1.088.322,3.433,1.088,3.725,1.215a16.139,16.139,0,0,0,1.562.6c.5.182,1.106.413,1.361.523.717.31,1.136.492,1.361.571a65.492,65.492,0,0,1,7.091,3.822,5.866,5.866,0,0,0,.626.456,7.979,7.979,0,0,1,.754.553c.1.091.34.28.535.413a4.419,4.419,0,0,1,.456.352c.061.061.3.273.553.474a26.572,26.572,0,0,1,3.33,3.451c.134.17.261.322.292.352a11.861,11.861,0,0,1,1.106,1.768.164.164,0,0,0,.079.158,6.707,6.707,0,0,1,.614,1.185,11.825,11.825,0,0,1,.249,4.971,12.692,12.692,0,0,1-1.045,3.1c-.152.292-.365.693-.462.887a3.21,3.21,0,0,1-.249.4,4.967,4.967,0,0,0-.292.456,5.2,5.2,0,0,1-.352.523c-.122.152-.213.261-.656.832a34.722,34.722,0,0,1-4.077,3.932c-.158.134-.322.261-.352.292s-.292.231-.6.444-.6.431-.656.48c-.2.182-3.312,2.194-3.391,2.194a4.872,4.872,0,0,0-.754.425c-.966.583-3.7,2.005-5.274,2.728-1.27.583-1.932.875-1.981.875-.018,0-.334.134-.662.292s-.735.322-.875.365a1.546,1.546,0,0,0-.352.152,4.91,4.91,0,0,1-.6.249c-.273.1-.7.273-.954.383s-.8.322-1.24.474a6.57,6.57,0,0,0-.845.34.426.426,0,0,1-.219.061,1.2,1.2,0,0,0-.431.14,3,3,0,0,1-.6.213,2.474,2.474,0,0,0-.492.158c-.17.091-1.568.553-2.716.893-.413.122-.845.261-.954.3a4.094,4.094,0,0,1-.6.182c-.219.061-.5.14-.626.17s-.231.049-.231.03Z" transform="translate(-19.735 -2.026)" fill="#00569d"/>
    </g>
    <g id="Grupo_3" data-name="Grupo 3" transform="translate(0 39.936)">
      <path id="Trazado_31" data-name="Trazado 31" d="M817.448,829.784a18.121,18.121,0,0,1-5.736-1.288,8.522,8.522,0,0,1-3.792-2.607,2.659,2.659,0,0,0-.292-.425,9.109,9.109,0,0,1-.784-1.628c-.583-1.592-.814-3.591-.814-7.091,0-4,.273-5.906,1.088-7.578.571-1.179,2.06-2.315,4.2-3.221.28-.122.644-.274.8-.34.6-.261,2.534-.954,3.67-1.331.632-.2,1.246-.4,1.361-.443s.565-.182,1.009-.3a8.884,8.884,0,0,0,.978-.31,1.067,1.067,0,0,1,.371-.091.318.318,0,0,0,.261-.1.3.3,0,0,1,.219-.1,25.8,25.8,0,0,0,2.649-.8,2.165,2.165,0,0,1,.5-.158,1.758,1.758,0,0,0,.456-.152,1.56,1.56,0,0,1,.4-.14c.334-.079,1.829-.614,2.333-.826a1.951,1.951,0,0,1,.365-.14c.031,0,.383-.152.8-.34,1.306-.6,1.507-.924,1.738-2.807a14.137,14.137,0,0,0,0-3.992,4.979,4.979,0,0,0-.784-2.789c-.51-.674-1.039-.875-2.236-.875-1.458,0-2.06.274-2.406,1.076-.249.6-.365,2.485-.365,6.137v3.391H806l.061-2.637a31.7,31.7,0,0,1,.474-5.566,12.468,12.468,0,0,1,1.55-3.877,14.331,14.331,0,0,1,2.376-2.364,4.729,4.729,0,0,0,.5-.365c.079-.091,1.714-1.039,2.267-1.306.28-.14.6-.31.7-.371a13.5,13.5,0,0,1,1.61-.674c.28-.091.6-.213.7-.261a34.5,34.5,0,0,1,3.373-.832,36.428,36.428,0,0,1,7.5-.553,38.554,38.554,0,0,1,9.407.857,17.479,17.479,0,0,1,3.02.918,1.183,1.183,0,0,0,.365.134,5.188,5.188,0,0,1,1.2.583c.4.213,1.507.863,1.61.948.061.043.4.3.778.583a7.589,7.589,0,0,1,1.738,1.671c.219.274.425.51.456.541a6.851,6.851,0,0,1,.857,1.562c.6,1.458.832,3.287,1.155,8.6.061,1.088.1,7.353.1,16.382v14.608H829.8v-2.072c0-2.242.03-2.182-.541-1.4a12.107,12.107,0,0,1-1.768,1.762.415.415,0,0,0-.219.134,15.027,15.027,0,0,1-1.75,1.076,4.367,4.367,0,0,0-.6.249,6.749,6.749,0,0,1-.826.31,4.274,4.274,0,0,0-.48.14,19.24,19.24,0,0,1-6.137.492Zm10.719-8.465c1.069-.553,1.209-1.622,1.209-9.267v-5.22l-.371.231c-.213.122-.511.292-.687.383a1.109,1.109,0,0,0-.334.243.138.138,0,0,1-.122.073,8.82,8.82,0,0,0-1.337.826A9.6,9.6,0,0,0,824.163,811a6.816,6.816,0,0,0-.522,1.8,33.628,33.628,0,0,0-.109,5.524c.182,1.914.474,2.595,1.306,2.99a3.549,3.549,0,0,0,1.975.292,2.627,2.627,0,0,0,1.361-.273Z" transform="translate(-757.023 -772.233)" fill="#929191"/>
      <path id="Trazado_32" data-name="Trazado 32" d="M1609.785,829.784c-1.124-.043-2.376-.121-2.765-.182s-1.015-.158-1.41-.213a20.971,20.971,0,0,1-2.467-.492c-.188-.049-.51-.14-.7-.188a18.764,18.764,0,0,1-2.917-1.094,14.862,14.862,0,0,1-2.212-1.24.736.736,0,0,0-.213-.158,13.348,13.348,0,0,1-2.5-2.346,10.155,10.155,0,0,1-1.106-1.75,1,1,0,0,0-.182-.352,19.04,19.04,0,0,1-1.55-5.657c-.17-1.258-.243-19.822-.079-21.183.4-3.379,1-5.22,2.163-6.69a17.456,17.456,0,0,1,1.963-1.914c.188-.134.371-.273.4-.3a4.144,4.144,0,0,1,.456-.3c.219-.134.425-.261.456-.292a32.4,32.4,0,0,1,3.318-1.72c.3-.109.644-.249.753-.3a27.648,27.648,0,0,1,2.972-.918,31.635,31.635,0,0,1,7.948-.784,30.6,30.6,0,0,1,8.7,1c.443.122.917.243,1.057.273a1.064,1.064,0,0,1,.353.134,3.92,3.92,0,0,0,.656.243,18.748,18.748,0,0,1,3.7,1.8.146.146,0,0,0,.121.073,8.717,8.717,0,0,1,1.507.984,13.259,13.259,0,0,1,2.212,2.285,4.961,4.961,0,0,0,.4.553,13.952,13.952,0,0,1,1.446,3.725,40.368,40.368,0,0,1,.766,6.824v.523h-17.489l-.042-3.992c-.043-3.974-.043-4-.28-4.63-.5-1.24-1.039-1.58-2.528-1.58a2.487,2.487,0,0,0-1.392.231,1.385,1.385,0,0,0-.845.814c-.443.918-.474,1.993-.474,14.56,0,10.306.018,12.025.158,12.828a6.513,6.513,0,0,0,.3,1.258,1.825,1.825,0,0,1,.14.425.108.108,0,0,0,.1.109c.061,0,.1.073.1.152,0,.2.675.833,1.155,1.088a2.621,2.621,0,0,0,1.367.219,2.579,2.579,0,0,0,1.519-.28c1.41-.717,1.689-2.084,1.689-8.288v-3.148h16.5v.431c0,.243-.073,1.72-.152,3.3a26.616,26.616,0,0,1-.662,5.645,10.084,10.084,0,0,1-1.118,2.376.208.208,0,0,0-.079.17.525.525,0,0,1-.122.273c-.073.073-.4.48-.735.924a18.851,18.851,0,0,1-2.376,2.528,13.483,13.483,0,0,1-1.981,1.361.172.172,0,0,0-.14.079,15.425,15.425,0,0,1-2.194,1.076,1.545,1.545,0,0,0-.352.152,6.949,6.949,0,0,1-.857.3c-.413.134-.954.3-1.209.371a29.918,29.918,0,0,1-6.794.936c-1.27.049-2.333.091-2.364.079s-.978-.043-2.115-.091Z" transform="translate(-1494.871 -772.233)" fill="#929191"/>
      <path id="Trazado_33" data-name="Trazado 33" d="M2841.1,842.188a16.889,16.889,0,0,1-4.527-.814c-.133-.049-.334-.134-.456-.182a17.03,17.03,0,0,1-2.3-1.154,9.21,9.21,0,0,1-3.008-3.834c-.133-.334-.273-.693-.322-.8-.492-1.179-.583-5.232-.6-25.279V794.9h18.5l.042,18.193c.03,16.8.042,18.254.2,19.068.3,1.489.748,1.811,2.589,1.823,1.738.012,2.242-.249,2.589-1.379.151-.474.17-2.327.2-19.111l.043-18.594h18.606v46.583h-18.947l.073-.425c.091-.51.249-2.576.261-3.129v-.395l-.425.5a10.045,10.045,0,0,1-.887.875c-.249.213-.474.4-.5.444a13.708,13.708,0,0,1-1.962,1.246,10.383,10.383,0,0,1-1.963.833c-.3.091-.644.213-.754.249a16.417,16.417,0,0,1-3.4.492c-.845.049-1.549.091-1.58.079s-.693-.042-1.477-.079Z" transform="translate(-2657.938 -784.631)" fill="#929191"/>
      <path id="Trazado_34" data-name="Trazado 34" d="M3638.766,829.876c-1.148-.043-2.394-.121-2.765-.182s-.924-.134-1.228-.158a35,35,0,0,1-4.479-.948c-.109-.049-.656-.231-1.209-.4s-1.209-.425-1.458-.535a23.914,23.914,0,0,1-2.315-1.179c-.03-.03-.3-.231-.613-.444a11.164,11.164,0,0,1-1.951-1.78,8.934,8.934,0,0,1-1.045-1.811c-.122-.3-.261-.644-.31-.753a18.073,18.073,0,0,1-.705-3.221c-.048-.383-.133-1.823-.158-3.19l-.073-2.5h16.431v2.145c0,5.524.456,6.623,2.747,6.781,1.659.1,2.99-.334,3.36-1.094a5.11,5.11,0,0,0,.475-2.947c0-2.625-.322-3.64-1.332-4.278-.57-.365-3.931-2.011-4.095-2.011-.031,0-.705-.3-1.915-.845-.273-.134-.6-.261-.723-.3s-.535-.219-.923-.413-.748-.352-.778-.352-.353-.14-.717-.3-.674-.3-.692-.3c-.061,0-.705-.279-2.407-1.057-.917-.425-2.242-1.088-2.972-1.5a7.66,7.66,0,0,0-.826-.432c-.1-.03-.182-.091-.182-.14s-.049-.091-.122-.091a12.741,12.741,0,0,1-1.981-1.276,10.107,10.107,0,0,1-1.792-1.78c-.152-.219-.31-.431-.341-.462a20.073,20.073,0,0,1-.893-1.859c-.048-.109-.157-.474-.249-.8s-.212-.7-.261-.826a15.935,15.935,0,0,1-.213-1.72,19.531,19.531,0,0,1,.833-7.669,8.648,8.648,0,0,1,4.339-4.709c.31-.17.656-.365.753-.413a24.505,24.505,0,0,1,4-1.367,47.2,47.2,0,0,1,18.364-.091,22.3,22.3,0,0,1,4.928,1.7c.3.17.644.34.748.383a13.186,13.186,0,0,1,1.993,1.361,7.581,7.581,0,0,1,2.734,3.853,36.611,36.611,0,0,1,.462,5.858v1.58h-16.407v-1.841a17.886,17.886,0,0,0-.444-4.588c-.37-.717-.984-.954-2.473-.954a3.011,3.011,0,0,0-1.653.243,3.109,3.109,0,0,0-.826.644c-.522.6-.644,1.118-.644,2.637a6.837,6.837,0,0,0,.5,3.057c.4.784,1.884,1.841,3.876,2.765.553.249,1.185.553,1.41.656a18.982,18.982,0,0,0,1.811.753,2.947,2.947,0,0,1,.6.273.4.4,0,0,0,.231.079,2.056,2.056,0,0,1,.553.188c.231.1.833.334,1.331.51s1,.365,1.106.413.455.182.753.292a16.222,16.222,0,0,1,1.623.693,6.129,6.129,0,0,0,.747.31,37.825,37.825,0,0,1,4.85,2.564c.061.049.279.213.492.352a18.816,18.816,0,0,1,2.182,2.115,1.012,1.012,0,0,1,.17.365.164.164,0,0,0,.079.158,7.508,7.508,0,0,1,.857,1.89c.473,1.428.522,1.853.51,4.728a16.874,16.874,0,0,1-.213,3.822,11.7,11.7,0,0,1-.6,2.285,1.64,1.64,0,0,0-.14.4,9.691,9.691,0,0,1-.948,1.841,9.873,9.873,0,0,1-2.072,2.121,6.783,6.783,0,0,1-1.215.832,12.888,12.888,0,0,1-1.853.905c-.274.1-.632.243-.8.31a16.685,16.685,0,0,1-1.732.565c-.182.049-.5.14-.7.188a40.128,40.128,0,0,1-11.43.893Z" transform="translate(-3400.017 -772.325)" fill="#929191"/>
      <path id="Trazado_35" data-name="Trazado 35" d="M0,654.326V625.9H19.214v11.017c0,6.058.03,11.017.079,11.017a4.428,4.428,0,0,0,.413-.936c.182-.5.4-1.088.48-1.276.334-.766.425-1,.887-2.267.273-.717.523-1.349.571-1.41a.434.434,0,0,0,.079-.249,2.53,2.53,0,0,1,.2-.553,2.529,2.529,0,0,0,.2-.553.484.484,0,0,1,.079-.249,5.321,5.321,0,0,0,.322-.754,6.937,6.937,0,0,1,.3-.753,6.4,6.4,0,0,0,.3-.754c.134-.365.334-.875.456-1.155s.444-1.088.7-1.811.523-1.349.571-1.41a.434.434,0,0,0,.079-.249,2.529,2.529,0,0,1,.2-.553,2.529,2.529,0,0,0,.2-.553.484.484,0,0,1,.079-.249,7.322,7.322,0,0,0,.425-1.009c.182-.492.431-1.148.565-1.44a4.412,4.412,0,0,0,.243-.6,4.346,4.346,0,0,1,.2-.474,2.529,2.529,0,0,0,.2-.553.4.4,0,0,1,.091-.249c.043-.061.231-.523.425-1.039l.334-.924h9.036c4.971,0,9.036.018,9.036.043s-.14.352-.31.735-.4.887-.51,1.136-.261.6-.34.753-.219.535-.334.8-.334.8-.5,1.179a7.281,7.281,0,0,0-.31.723,4.553,4.553,0,0,1-.249.583c-.134.292-.334.766-.431,1.039s-.322.778-.474,1.106-.4.875-.553,1.209-.352.833-.462,1.106-.292.693-.413.936a2.164,2.164,0,0,0-.231.535,4.338,4.338,0,0,1-.292.735c-.152.34-.523,1.185-.814,1.872s-.675,1.592-.863,1.981a6.8,6.8,0,0,0-.34.8,6.7,6.7,0,0,1-.3.717c-.158.352-.3.674-.3.693,0,.049-.261.656-.662,1.519a4.29,4.29,0,0,0-.243.583,5.265,5.265,0,0,1-.292.687c-.152.34-.31.723-.352.845s-.219.535-.413.924-.352.747-.352.778c0,.049-.213.535-.565,1.319-.134.292-.122.371.213,1.258.2.51.425,1.076.5,1.24s.231.571.365.905.292.784.395,1.009.3.747.456,1.154.365.948.462,1.179a2.051,2.051,0,0,1,.188.553.547.547,0,0,0,.079.243c.049.049.371.863.723,1.8s.662,1.762.7,1.811.243.571.456,1.155a11.957,11.957,0,0,0,.456,1.155,7.534,7.534,0,0,1,.3.753,4.543,4.543,0,0,0,.322.747.5.5,0,0,1,.079.249,2.464,2.464,0,0,0,.2.565,2.368,2.368,0,0,1,.2.565.573.573,0,0,0,.079.249,13.925,13.925,0,0,1,.571,1.4,10.867,10.867,0,0,0,.565,1.4.425.425,0,0,1,.091.243,2.052,2.052,0,0,0,.188.553c.1.231.334.833.51,1.331s.365.954.4,1.009a7.533,7.533,0,0,1,.3.753,4.541,4.541,0,0,0,.322.747.5.5,0,0,1,.079.249,2.464,2.464,0,0,0,.2.565,2.369,2.369,0,0,1,.2.565.573.573,0,0,0,.079.249,12.481,12.481,0,0,1,.571,1.4,14.164,14.164,0,0,0,.571,1.4.5.5,0,0,1,.079.249,1.149,1.149,0,0,0,.134.413,8.959,8.959,0,0,1,.371.905c.134.365.3.766.371.905a1.191,1.191,0,0,1,.134.432c0,.158-.541.17-9.911.17-7.851,0-9.923-.03-9.953-.122-.018-.073-.292-.893-.6-1.841s-.784-2.455-1.076-3.372-.553-1.75-.6-1.859-.243-.747-.456-1.41-.444-1.428-.535-1.714-.188-.6-.231-.7c-.1-.249-.425-1.24-1.094-3.373-.292-.917-.626-1.975-.753-2.364s-.395-1.246-.6-1.914-.413-1.3-.456-1.41-.158-.456-.243-.754-.213-.644-.249-.753c-.152-.334-.814-2.5-.814-2.637,0-.073-.043-.134-.1-.134s-.1,4.126-.1,12.177v12.177H0V654.326Z" transform="translate(0 -625.9)" fill="#929191"/>
      <path id="Trazado_36" data-name="Trazado 36" d="M2331.673,745.051c-2.005-.061-5.08-.243-5.937-.334a10.384,10.384,0,0,1-6.994-3.4,2.447,2.447,0,0,1-.4-.614.1.1,0,0,0-.1-.109.112.112,0,0,1-.1-.109,2.725,2.725,0,0,0-.212-.565,4.859,4.859,0,0,1-.3-1.076c-.042-.34-.14-1-.2-1.471-.091-.632-.14-4.709-.17-15.617l-.03-14.772H2313.2V699.64h4.023V692.3h18.51v7.341h5.031v7.341h-5.031V720.2c0,11.157.018,13.441.152,14.681.17,1.6.31,2.072.675,2.267a16.579,16.579,0,0,0,3.834.425h1.179v7.547l-4.5-.018c-2.486-.012-4.91-.03-5.414-.049Z" transform="translate(-2172.636 -688.265)" fill="#929191"/>
    </g>
  </g>
</svg>
