<svg xmlns="http://www.w3.org/2000/svg" width="350" height="115.331" viewBox="0 0 350 115.331">
  <g id="logo-kactus-hcm-white" transform="translate(0.1 -2.65)">
    <path id="Trazado_140" data-name="Trazado 140" d="M4513.951,1751.669c-.273-.079-.535-.14-.571-.152s.012-.219.1-.5c.188-.565.231-.583,1.039-.334a5.677,5.677,0,0,0,1.55.158c1.7-.012,2.333-.48,2.443-1.811.042-.432.018-.535-.109-.535a.3.3,0,0,0-.231.109,1.81,1.81,0,0,1-.535.322,3.678,3.678,0,0,1-1.769.213,3.72,3.72,0,0,1-1.792-.219,2.583,2.583,0,0,1-1.41-1.55,6.432,6.432,0,0,1-.012-2.886,3.215,3.215,0,0,1,.978-1.428,2.247,2.247,0,0,0,.273-.182,4.052,4.052,0,0,1,1.489-.565,10.244,10.244,0,0,1,3.494.03l1.009.17v3.725c0,3.725,0,3.725-.243,4.175a2.358,2.358,0,0,1-1.306,1.148,13.193,13.193,0,0,1-4.388.109Zm3.318-3.634a2.176,2.176,0,0,0,1.088-1.039,4.913,4.913,0,0,0,.17-1.981v-1.629l-.413-.073a10.589,10.589,0,0,0-1.392-.079,2.482,2.482,0,0,0-1.458.243,2.4,2.4,0,0,0-1.271,2.333,2.252,2.252,0,0,0,1.106,2.181,3.547,3.547,0,0,0,2.163.043Z" transform="translate(-4238.386 -1633.816)" fill="#fff"/>
    <path id="Trazado_141" data-name="Trazado 141" d="M151.864,1752.964c-.049-.079-.018-.34.122-.826.03-.14.152-.182.565-.182.747,0,.887-.061,1.246-.541.51-.662.523-.918.049-1.78-.213-.413-.632-1.2-.924-1.75s-.565-1.045-.6-1.106-.292-.5-.553-1.009-.632-1.185-.826-1.537l-.34-.632.863.03c.8.03.875.049,1.009.28.4.717,1.963,4.065,2.175,4.661.134.371.292.675.352.675s.2-.3.3-.675a8.446,8.446,0,0,1,.395-1.185c.122-.273.31-.723.413-1.009s.243-.614.31-.754a1.178,1.178,0,0,0,.134-.4.484.484,0,0,1,.079-.249,5.378,5.378,0,0,0,.322-.723l.219-.632h.753c.413,0,.735.03.717.079-.14.28-.3.644-.48,1.076-.249.583-.292.687-.693,1.592-.17.383-.31.717-.31.747s-.134.34-.3.7-.3.675-.3.693a27.4,27.4,0,0,1-1.562,3.16,3.793,3.793,0,0,1-1.27,1.246,3.36,3.36,0,0,1-1.853.061Z" transform="translate(-141.543 -1635.159)" fill="#fff"/>
    <path id="Trazado_142" data-name="Trazado 142" d="M566.3,1746.254v-4.728h.444c.474,0,.6.1.7.535.079.322.261.352.51.073a3.269,3.269,0,0,1,.747-.474,2.839,2.839,0,0,1,1.72-.273,3.17,3.17,0,0,1,1.714.261,2.413,2.413,0,0,1,1.549,1.884,3.71,3.71,0,0,1-2.206,4.7,6.975,6.975,0,0,1-3.591-.012c-.17-.073-.182.03-.182,1.349v1.416H566.3Zm4.728.936a2.345,2.345,0,0,0,1.209-1.841,2.94,2.94,0,0,0-.334-2.09c-.535-1.076-2.668-1.276-3.585-.34-.535.553-.614.893-.614,2.595v1.562l.431.188a3.314,3.314,0,0,0,1.4.188,2.366,2.366,0,0,0,1.489-.261Z" transform="translate(-531.982 -1633.079)" fill="#fff"/>
    <path id="Trazado_143" data-name="Trazado 143" d="M3986.2,1703.2a7.6,7.6,0,0,1-2.315-.936,4.952,4.952,0,0,1-1.41-1.27.453.453,0,0,0-.134-.213,4.685,4.685,0,0,1-.784-1.872,4.6,4.6,0,0,1,.371-2.607,5.534,5.534,0,0,1,3.524-2.911,4.9,4.9,0,0,1,2.054-.292,5.8,5.8,0,0,1,3.22.735,4.99,4.99,0,0,1,1.361.984,3.657,3.657,0,0,1,1.069,1.416c.122.261.273.6.334.723a5.915,5.915,0,0,1-.091,2.674,5.817,5.817,0,0,1-4.509,3.561,8.641,8.641,0,0,1-2.686-.012Zm2.413-.984a5.715,5.715,0,0,0,.857-.188,12.183,12.183,0,0,0,1.349-.662,6.832,6.832,0,0,0,1.319-1.416c0-.079.042-.14.079-.14a3.4,3.4,0,0,0,.426-1.6c0-2.175-2.382-4.138-5.044-4.138a5.655,5.655,0,0,0-4.557,2.3,4.69,4.69,0,0,0-.565,1.829,4.6,4.6,0,0,0,.583,1.859,4.937,4.937,0,0,0,.735.863,5.6,5.6,0,0,0,1.854,1.106,6.9,6.9,0,0,0,2.971.188Z" transform="translate(-3739.663 -1587.728)" fill="#fff"/>
    <path id="Trazado_144" data-name="Trazado 144" d="M4034.436,1732.4a2.49,2.49,0,0,1-2.236-2.546,2.465,2.465,0,0,1,1.2-2.224,4.722,4.722,0,0,1,3.281-.432c.413.109.444.14.383.371a1.612,1.612,0,0,1-.091.322,4.425,4.425,0,0,1-1.088.018c-.936-.049-1.094-.03-1.458.152a1.772,1.772,0,0,0-.936.954,1.891,1.891,0,0,0,1.009,2.534,2.172,2.172,0,0,0,1.155.121,6.57,6.57,0,0,0,1.045-.109c.188-.073.231-.03.31.249a.792.792,0,0,1,.031.413,9.063,9.063,0,0,1-1.853.273c-.122-.012-.462-.049-.754-.1Z" transform="translate(-3787.273 -1619.643)" fill="#fff"/>
    <path id="Trazado_145" data-name="Trazado 145" d="M4748.261,1726.194c-.948-.334-1.148-1.015-1.148-3.932v-1.945H4745.8v-1.009h1.313v-1.379l.583-.1a5.951,5.951,0,0,0,.753-.182c.152-.061.17.012.17.8v.863h2.516v1.009h-2.516v2.072c0,2.9.031,2.941,1.7,2.826.863-.061.863-.061,1,.2.188.425.152.523-.249.614-.213.049-.6.14-.863.2a3.736,3.736,0,0,1-1.944-.043Z" transform="translate(-4457.511 -1610.765)" fill="#fff"/>
    <path id="Trazado_146" data-name="Trazado 146" d="M5020.456,1716.394a1.179,1.179,0,0,1-.918-1.015c-.061-.28-.091-2.005-.079-4.3l.03-3.822.687-.03.674-.03v3.786c0,4.679-.048,4.527,1.361,4.46l.6-.03.122.4a1.177,1.177,0,0,1,.091.431,8.036,8.036,0,0,1-1.769.31,3.284,3.284,0,0,1-.8-.158Z" transform="translate(-4714.539 -1600.971)" fill="#fff"/>
    <path id="Trazado_147" data-name="Trazado 147" d="M5641.121,1749.138a3.173,3.173,0,0,1-1.5-.675c-1.507-1.27-1.477-4.369.061-5.536a3.231,3.231,0,0,1,1.519-.687,5.28,5.28,0,0,1,3.665.4,2.487,2.487,0,0,1,.656.674c.249.383.279.523.31,1.507l.043,1.076h-5.858v.395a.752.752,0,0,0,.1.462.259.259,0,0,1,.1.213c0,.249.431.753.857.978.352.2.565.219,1.762.219,1.27,0,1.391-.018,1.823-.261l.462-.261.212.383a1.836,1.836,0,0,1,.219.492c0,.3-2.042.814-3.178.8a6.226,6.226,0,0,1-1.246-.182Zm3.421-4.43a1.611,1.611,0,0,0-.6-1.209,3.015,3.015,0,0,0-2.09-.334,1.9,1.9,0,0,0-1.793,1.562l-.073.273h4.545v-.292Z" transform="translate(-5295.973 -1633.74)" fill="#fff"/>
    <path id="Trazado_148" data-name="Trazado 148" d="M4253.135,1715.773l-.735-.042v-9.115l1.689-.061a14.372,14.372,0,0,1,3.883.231.4.4,0,0,0,.249.1,5.461,5.461,0,0,1,1.732.936,4.376,4.376,0,0,1,1.185,1.884,4.637,4.637,0,0,1-1.6,5.05c-1.337.966-2.716,1.185-6.411,1.015Zm3.731-1.185a3.184,3.184,0,0,0,2.777-3.421,3.314,3.314,0,0,0-.571-2.06c-.322-.425-.735-.8-.905-.8-.073,0-.134-.042-.134-.1a.125.125,0,0,0-.122-.1,1.412,1.412,0,0,1-.431-.17,5.486,5.486,0,0,0-1.884-.213l-1.592-.043v7.061h1.094a10.2,10.2,0,0,0,1.762-.152Z" transform="translate(-3994.093 -1600.35)" fill="#fff"/>
    <path id="Trazado_149" data-name="Trazado 149" d="M4857.1,1750.9a2.044,2.044,0,0,1-1.9-1.859,2.17,2.17,0,0,1,.644-1.392,5.467,5.467,0,0,1,3.53-.833,10.734,10.734,0,0,1,1.148.122c.231.073.231.073.188-.656-.03-.614-.073-.754-.3-.984-.249-.243-.365-.274-1.155-.31a7.166,7.166,0,0,0-2.516.31c-.6.158-.656.134-.814-.456l-.1-.365.5-.17a10.537,10.537,0,0,1,3.269-.322,2.6,2.6,0,0,1,2.267.918l.28.4-.019,2.564a11.028,11.028,0,0,0,.1,2.807c.134.219.122.219-.425.219h-.553l-.182-.5c-.2-.553-.273-.6-.583-.3a4.258,4.258,0,0,1-3.385.8Zm2.607-1.2c.753-.383.954-.656,1.009-1.307.048-.717.048-.717-1.5-.717-1.714,0-2.406.365-2.406,1.246,0,.462.048.553.4.784a1.858,1.858,0,0,0,1.367.231,2.783,2.783,0,0,0,1.124-.243Z" transform="translate(-4560.263 -1635.504)" fill="#fff"/>
    <path id="Trazado_150" data-name="Trazado 150" d="M5156.476,1715.963c-.018-.073-.122-.352-.212-.632s-.219-.632-.292-.8-.231-.6-.353-.954-.279-.784-.352-.954-.28-.735-.456-1.258-.413-1.136-.5-1.361c-.279-.656-1.105-2.917-1.105-3.051,0-.079.243-.121.8-.121h.784l.17.431a2.686,2.686,0,0,1,.158.523,1.212,1.212,0,0,0,.14.371,3.193,3.193,0,0,1,.213.6,2.216,2.216,0,0,0,.14.431,5.962,5.962,0,0,1,.3.8c.122.4.261.8.31.905a11.873,11.873,0,0,1,.717,2.315c.061.334.121.717.158.857.061.231.073.213.152-.152.042-.219.1-.565.14-.753a4.61,4.61,0,0,1,.219-.754c.334-.845.535-1.319.625-1.477a.757.757,0,0,0,.1-.28,6.1,6.1,0,0,1,.5-1.258c.122-.28.431-1.027.626-1.507.461-1.155.395-1.069.826-1.039l.383.03.48,1.155c.273.632.535,1.27.583,1.41s.2.5.322.8.249.644.3.753.182.432.3.7a5.907,5.907,0,0,0,.3.662,2.8,2.8,0,0,1,.152.553,8.091,8.091,0,0,0,.183.875l.109.48.133-.687c.134-.644.966-3.421,1.137-3.755a3.051,3.051,0,0,0,.152-.5,2.653,2.653,0,0,1,.158-.5c.043-.079.2-.553.365-1.057l.28-.905.784-.03.784-.03-.073.279a1.646,1.646,0,0,1-.152.383.374.374,0,0,0-.091.231,2,2,0,0,1-.158.5c-.231.535-.292.674-.626,1.629-.693,1.975-1.058,2.978-1.136,3.172-.043.109-.183.492-.292.857s-.261.747-.31.857-.183.456-.28.754l-.188.553-.462.03c-.431.03-.474.012-.565-.249-.061-.152-.152-.371-.2-.48s-.249-.6-.456-1.106-.4-1-.456-1.106-.188-.456-.3-.754c-.219-.583-.462-1.155-.6-1.41-.042-.079-.2-.6-.365-1.148l-.292-.984-.122.34a6.206,6.206,0,0,0-.188.766,1.2,1.2,0,0,1-.158.48.293.293,0,0,0-.091.219,1.242,1.242,0,0,1-.134.425,8.952,8.952,0,0,0-.371.905,5.993,5.993,0,0,1-.3.754,4.658,4.658,0,0,0-.249.6c-.158.456-.31.832-.705,1.714-.073.17-.188.474-.261.687-.134.365-.152.371-.614.371-.3,0-.5-.049-.535-.121Z" transform="translate(-4840.156 -1600.595)" fill="#fff"/>
    <path id="Trazado_151" data-name="Trazado 151" d="M5388.693,1750.727c-1.623-.31-2.3-1.853-1.319-3a2.914,2.914,0,0,1,1.951-.966,7.382,7.382,0,0,1,2.789.012c.188.049.231.012.28-.3a1.568,1.568,0,0,0-.3-1.337c-.231-.279-.243-.279-1.531-.273a6.361,6.361,0,0,0-2.005.213l-.717.213-.158-.462c-.183-.48-.134-.614.243-.626a.463.463,0,0,0,.25-.091,10.069,10.069,0,0,1,2.673-.31,3.515,3.515,0,0,1,2.686.845,3.711,3.711,0,0,1,.3,2.352,15.69,15.69,0,0,0,.061,3.47l.079.28-.535-.03c-.522-.03-.535-.042-.674-.431-.2-.583-.279-.614-.644-.31a3.389,3.389,0,0,1-1.714.766,4.356,4.356,0,0,1-1.731-.012Zm2.759-1.209c.705-.353.893-.632.893-1.3,0-.7,0-.7-1.5-.7-1.659,0-2.333.353-2.364,1.228a.679.679,0,0,0,.334.693c.425.352.583.395,1.5.334A2.742,2.742,0,0,0,5391.452,1749.518Z" transform="translate(-5059.672 -1635.347)" fill="#fff"/>
    <path id="Trazado_152" data-name="Trazado 152" d="M14.01,1714.664a10.476,10.476,0,0,1-1.106-.219l-.5-.134v-8.75l.735-.03.723-.03v1.568a7.412,7.412,0,0,0,.079,1.562.856.856,0,0,0,.292-.243,3.362,3.362,0,0,1,.7-.474,3,3,0,0,1,1.592-.231,2.948,2.948,0,0,1,1.683.28,2.917,2.917,0,0,1,1.519,1.689,5.972,5.972,0,0,1-.012,2.82,3.455,3.455,0,0,1-2.212,2.005A10.77,10.77,0,0,1,14.01,1714.664Zm2.734-1.076a2.179,2.179,0,0,0,1.306-1.009,4.317,4.317,0,0,0-.043-3.026,2.292,2.292,0,0,0-2.765-.735,2.5,2.5,0,0,0-1.124.948c-.261.334-.261.371-.261,2.054v1.714l.48.1a5.484,5.484,0,0,0,2.406-.042Z" transform="translate(-11.741 -1599.375)" fill="#fff"/>
    <path id="Trazado_153" data-name="Trazado 153" d="M370.139,1713.391a9.379,9.379,0,0,1-1.762-.723,5.908,5.908,0,0,1-1.118-1.124,6.11,6.11,0,0,1-.182-5.092c.747-1.58,2.206-2.352,4.418-2.352a5.928,5.928,0,0,1,2.747.541,4.339,4.339,0,0,1,1.641,1.671,4.128,4.128,0,0,1,.492,2.467,4.255,4.255,0,0,1-.474,2.455,4.194,4.194,0,0,1-2.412,1.981,14.073,14.073,0,0,1-3.348.182Zm2.826-1.3a2.742,2.742,0,0,0,1.689-2.054,4.683,4.683,0,0,0-.3-3.221c-.766-1.622-3.111-2.121-4.843-1.045-1.027.644-1.5,2.352-1.148,4.065a3.141,3.141,0,0,0,2.145,2.406,6.055,6.055,0,0,0,2.455-.152Z" transform="translate(-344.426 -1598.06)" fill="#fff"/>
    <path id="Trazado_154" data-name="Trazado 154" d="M889.774,1748.185a2.951,2.951,0,0,1-1.981-1.829,3.5,3.5,0,0,1-.17-1.72,3.2,3.2,0,0,1,.334-1.659,2.917,2.917,0,0,1,1.41-1.288c.219-.091.51-.219.644-.279a7.157,7.157,0,0,1,1.562-.109,3.433,3.433,0,0,1,1.884.28,2.846,2.846,0,0,1,1.3,1.215,3.187,3.187,0,0,1,.152,1.258v.966l-2.947.03-2.959.018.073.4c.231,1.361,1.039,1.914,2.765,1.914a3.617,3.617,0,0,0,2.054-.456c.188-.14.219-.121.492.31a1.834,1.834,0,0,1,.249.48,3.767,3.767,0,0,1-.905.365.415.415,0,0,0-.261.122,4.953,4.953,0,0,1-1.6.152,5.236,5.236,0,0,1-2.084-.17Zm3.761-4.406a1.446,1.446,0,0,0-.814-1.3,3.243,3.243,0,0,0-2.99.3,2.294,2.294,0,0,0-.626,1.179c0,.2.049.2,2.212.2h2.212v-.383Z" transform="translate(-833.763 -1632.999)" fill="#fff"/>
    <path id="Trazado_155" data-name="Trazado 155" d="M1052.047,1714.709c-.723-.371-.687-.1-.717-4.843l-.03-4.266h1.422v3.865c0,3.786,0,3.865.213,4.126s.249.273,1,.243l.784-.03.073.395a.79.79,0,0,1-.042.492,5.54,5.54,0,0,1-1.24.14A2.973,2.973,0,0,1,1052.047,1714.709Z" transform="translate(-987.511 -1599.469)" fill="#fff"/>
    <path id="Trazado_156" data-name="Trazado 156" d="M1208.353,1749.321a3.6,3.6,0,0,1-.571-.2,1.639,1.639,0,0,0-.4-.14,2.875,2.875,0,0,1-.48-.4c-.395-.395-.4-.413-.4-1.136a1.545,1.545,0,0,1,.833-1.58c.717-.51,1.319-.644,3.038-.656h1.562l.03-.474a1.288,1.288,0,0,0-.462-1.179,3.846,3.846,0,0,0-2.327-.158,8.145,8.145,0,0,0-1.392.322c-.371.152-.523.079-.535-.249a.894.894,0,0,0-.122-.322c-.109-.158-.091-.219.073-.34a10.444,10.444,0,0,1,4.728-.31,2.317,2.317,0,0,1,1.349,1.118,13.08,13.08,0,0,1,.091,2.619c-.018,1.27.012,2.473.049,2.686l.079.371h-1.076l-.182-.541-.188-.553-.51.383a4.235,4.235,0,0,1-.966.541,6.759,6.759,0,0,1-2.212.213Zm2.176-1.106a2.363,2.363,0,0,0,.948-.535.943.943,0,0,0,.4-.948v-.565l-.353-.073a11.541,11.541,0,0,0-1.477-.018c-1.246.043-1.622.17-1.932.687-.644,1.094.747,1.932,2.412,1.446Z" transform="translate(-1133.28 -1633.989)" fill="#fff"/>
    <path id="Trazado_157" data-name="Trazado 157" d="M4444.5,1748.821V1745.4h1.41v6.842h-1.41Z" transform="translate(-4174.52 -1636.85)" fill="#fff"/>
    <path id="Trazado_158" data-name="Trazado 158" d="M4686.3,1748.821V1745.4h1.507v6.842H4686.3Z" transform="translate(-4401.626 -1636.85)" fill="#fff"/>
    <path id="Trazado_159" data-name="Trazado 159" d="M5547.4,1746.348v-3.421l.535.03.522.03.091.431c.061.231.158.425.231.425s.134-.043.134-.1c0-.2.905-.778,1.428-.893.723-.17,1.738,0,1.6.273a3.385,3.385,0,0,0-.152.535l-.061.365-.784-.049a1.938,1.938,0,0,0-1.829.656c-.249.28-.249.28-.279,2.728l-.03,2.437h-1.4v-3.433Z" transform="translate(-5210.401 -1634.389)" fill="#fff"/>
    <path id="Trazado_160" data-name="Trazado 160" d="M728.6,1710.276V1705.7h1.41v1.562a4.943,4.943,0,0,0,.1,1.562,2.275,2.275,0,0,0,.784-.523.167.167,0,0,1,.152-.079,1.337,1.337,0,0,0,.425-.17,3.252,3.252,0,0,1,1.507-.17c1.319-.012,1.768.121,2.254.626.523.565.553.784.6,3.67l.043,2.686H734.44v-2.3c0-3.05-.1-3.318-1.379-3.64a1.843,1.843,0,0,0-1.057,0,3.037,3.037,0,0,0-1.659.984l-.279.365-.03,2.3-.03,2.3h-1.4v-4.576Z" transform="translate(-684.42 -1599.562)" fill="#fff"/>
    <path id="Trazado_161" data-name="Trazado 161" d="M1140.9,1747.121V1743.7h1.507v6.842H1140.9Z" transform="translate(-1071.666 -1635.253)" fill="#fff"/>
    <path id="Trazado_162" data-name="Trazado 162" d="M1137.366,1705.514c-.213-.079-.4-.14-.4-.14a1.58,1.58,0,0,1-.14-.292c-.334-.8.887-1.361,1.683-.754.383.292.432.6.134.924a2.226,2.226,0,0,1-.231.219c-.012,0-.158.042-.334.091a1.15,1.15,0,0,1-.7-.049Z" transform="translate(-1067.786 -1598.034)" fill="#fff"/>
    <path id="Trazado_163" data-name="Trazado 163" d="M4439.7,1707.654a.7.7,0,0,1,.012-1.045,1.384,1.384,0,0,1,1.641.109.658.658,0,0,1-.122.924A1.475,1.475,0,0,1,4439.7,1707.654Z" transform="translate(-4169.8 -1600.216)" fill="#fff"/>
    <path id="Trazado_164" data-name="Trazado 164" d="M4681.731,1707.378c-.3-.31-.322-.456-.1-.8.461-.7,1.95-.456,1.95.322,0,.693-1.3,1.027-1.853.474Z" transform="translate(-4397.101 -1600)" fill="#fff"/>
    <path id="Trazado_165" data-name="Trazado 165" d="M817.1,830.066a14.9,14.9,0,0,1-1.562-.182c-.219-.061-.626-.152-.905-.2a10.42,10.42,0,0,1-1.61-.4c-.109-.049-.425-.17-.7-.261a12.656,12.656,0,0,1-2.546-1.179c-.018-.049-.1-.079-.17-.079a8.893,8.893,0,0,1-2.054-2.1,7.1,7.1,0,0,1-.523-1.057c-.109-.28-.231-.6-.28-.717a13.255,13.255,0,0,1-.565-2.734c-.31-2.473-.152-8.683.249-9.789a4.337,4.337,0,0,0,.152-.6,6.187,6.187,0,0,1,1.872-2.978,18.742,18.742,0,0,1,3.664-1.914,3.148,3.148,0,0,0,.6-.243,5.922,5.922,0,0,1,.754-.292c.365-.134.948-.34,1.306-.462.687-.249,2.054-.687,3.318-1.057,1.118-.334,2.333-.717,2.564-.8.109-.042.541-.182.954-.3,1.392-.425,3.47-1.118,3.792-1.258a1.568,1.568,0,0,1,.456-.152.455.455,0,0,0,.231-.079,5.689,5.689,0,0,1,.7-.31c1.811-.693,2.151-1.088,2.376-2.807A20.346,20.346,0,0,0,828.9,792a2.6,2.6,0,0,0-1.2-1.519,3.938,3.938,0,0,0-3.64.322c-.462.444-.626,2.242-.632,6.812v3.19H806l.049-2.637a23.088,23.088,0,0,1,.747-6.672,7.792,7.792,0,0,1,2.394-4.023c1.41-1.4,1.823-1.671,4.478-3.026a8.144,8.144,0,0,1,1.155-.541,1.263,1.263,0,0,0,.352-.134,7.827,7.827,0,0,1,1.009-.365l.954-.31a10.664,10.664,0,0,1,1.209-.292c.553-.122,1.209-.261,1.458-.31.523-.109,1.853-.28,3.221-.4,1.246-.122,6.994-.122,8.349,0,4.156.352,7.237,1.076,9.407,2.224a11.9,11.9,0,0,1,1.458.8,4.968,4.968,0,0,0,.456.292,3.215,3.215,0,0,1,.456.3c.03.03.219.17.425.334a18.738,18.738,0,0,1,1.768,1.72,13.642,13.642,0,0,1,1.057,1.671c.687,1.477.918,3.057,1.276,8.6.061,1,.1,7.274.1,16.48v14.863H829.772l-.012-2.03v-2.042l-.273.34a16.27,16.27,0,0,1-2.236,2.206,13.155,13.155,0,0,1-3.421,1.671,13.772,13.772,0,0,1-3.148.565,18.683,18.683,0,0,1-3.591-.012Zm10.92-8.4c.747-.3,1.009-.784,1.167-2.151.152-1.209.243-12.275.1-12.275a22.207,22.207,0,0,0-2.224,1.3,5.528,5.528,0,0,1-.644.462,7.412,7.412,0,0,0-2.194,2.267,8.034,8.034,0,0,0-.7,3.342,21.708,21.708,0,0,0,.292,5.688,2.227,2.227,0,0,0,1.793,1.55,6.392,6.392,0,0,0,2.412-.17Z" transform="translate(-757.117 -731.992)" fill="#fff"/>
    <path id="Trazado_166" data-name="Trazado 166" d="M1607.6,829.766c-.918-.049-1.975-.134-2.364-.188s-1.015-.158-1.41-.213a22.081,22.081,0,0,1-4.74-1.24.345.345,0,0,0-.213-.073,24.084,24.084,0,0,1-2.886-1.428,14.354,14.354,0,0,1-3.287-3.05,5.007,5.007,0,0,0-.413-.553,21.608,21.608,0,0,1-1.24-2.516,3.087,3.087,0,0,0-.152-.456,20.874,20.874,0,0,1-.766-3.622c-.274-1.993-.334-4.126-.334-11.521,0-9.479.091-10.95.814-13.533a8.19,8.19,0,0,1,1.076-2.564c.03-.03.182-.231.334-.456,1.076-1.568,3.822-3.512,6.532-4.63.352-.14.735-.3.845-.34a30.62,30.62,0,0,1,2.971-.918,34.028,34.028,0,0,1,4.375-.7c1.227-.109,6.119-.122,7.3,0,1.258.122,2.5.292,3.069.413,1.009.219,2.224.5,2.516.6.924.279,1.629.523,1.811.6.109.049.431.182.717.292a24.321,24.321,0,0,1,4.217,2.346,11.957,11.957,0,0,1,3.251,3.822,15.69,15.69,0,0,1,1.167,3.8c.042.249.109.632.158.857.122.51.4,3.913.4,4.861v.723h-17.488l-.049-3.944a24.2,24.2,0,0,0-.188-4.406c-.219-.632-.4-1.009-.492-1.009-.042,0-.1-.079-.134-.182-.14-.444-1.489-.778-2.564-.626-1.379.188-1.732.693-1.981,2.765-.213,1.811-.213,23.948.012,25.388a4.828,4.828,0,0,0,.693,2.212,2.514,2.514,0,0,0,2.473,1.27,2.675,2.675,0,0,0,1.89-.51c1.057-.784,1.319-2.437,1.331-8.3v-2.9h16.534l-.061,1.689c-.213,5.432-.456,7.286-1.185,8.848a13.511,13.511,0,0,1-1.2,2.042.737.737,0,0,0-.158.213,16.791,16.791,0,0,1-3.816,3.725,18.937,18.937,0,0,1-4.831,2.273c-.273.079-.662.188-.857.243a29.67,29.67,0,0,1-4.479.8c-1.379.14-5.335.188-7.195.1Z" transform="translate(-1493.288 -731.686)" fill="#fff"/>
    <path id="Trazado_167" data-name="Trazado 167" d="M2840.786,840.679a14.736,14.736,0,0,1-4.417-.905,3.292,3.292,0,0,0-.5-.188,13.068,13.068,0,0,1-1.981-1.057,8.69,8.69,0,0,1-3.573-5.864c-.231-1.246-.31-6.69-.31-22.884V793.3h18.5l.042,18.193c.043,15.981.073,18.284.2,18.989.091.444.158.857.158.918.012.2.565.723.966.893a5.827,5.827,0,0,0,3.081-.03,1.439,1.439,0,0,0,.966-1.246c.14-.565.17-2.686.2-19.172l.043-18.546h18.606v46.693h-18.923v-.219a8.362,8.362,0,0,1,.091-.833c.049-.334.122-1.088.158-1.689l.061-1.076-.833.826a12.314,12.314,0,0,1-1.288,1.136,5.558,5.558,0,0,0-.5.352,8.911,8.911,0,0,1-1.507.857c-.249.1-.675.279-.954.4a18.65,18.65,0,0,1-8.282.948Z" transform="translate(-2658.126 -742.605)" fill="#fff"/>
    <path id="Trazado_168" data-name="Trazado 168" d="M3638.47,830.072c-.936-.049-2.023-.134-2.412-.188s-1.015-.152-1.41-.213a18.624,18.624,0,0,1-2.546-.462c-.322-.091-.826-.219-1.124-.292-.583-.152-2.03-.6-2.364-.754-.109-.049-.6-.261-1.106-.462a14.94,14.94,0,0,1-3.239-1.92c-.231-.213-.535-.474-.656-.583a9.043,9.043,0,0,1-2.024-3.372,21.891,21.891,0,0,1-.875-7.213v-1.641h16.407v1.945c.012,3.725.243,5.445.833,6.156.492.6,1.039.8,2.346.8,2.747.012,3.409-.8,3.391-4.114-.012-2.394-.352-3.531-1.215-4.077a49.555,49.555,0,0,0-4.5-2.212c-.273-.122-.778-.352-1.118-.51a5.451,5.451,0,0,0-.675-.292,6,6,0,0,1-.7-.3c-.365-.158-.687-.3-.717-.3a8.4,8.4,0,0,1-.784-.34c-.4-.188-1.185-.535-1.738-.766-4.314-1.811-7.705-3.755-9.255-5.281a10.333,10.333,0,0,1-2.668-6.07,25.366,25.366,0,0,1,.213-6.058,11.227,11.227,0,0,1,1-3.069,7.78,7.78,0,0,1,2.82-3.129,18.013,18.013,0,0,1,2.668-1.4,3.669,3.669,0,0,0,.6-.261,2.184,2.184,0,0,1,.456-.14,2.627,2.627,0,0,0,.5-.158,3.257,3.257,0,0,1,.6-.188c.249-.061.8-.188,1.209-.3A33.837,33.837,0,0,1,3639.5,782a35.573,35.573,0,0,1,9.006.814,19.754,19.754,0,0,1,7.4,3.142,20.686,20.686,0,0,1,2.151,2.121,6.3,6.3,0,0,1,.917,1.78,1.148,1.148,0,0,0,.1.4,34.055,34.055,0,0,1,.4,5.457v1.872h-16.407v-1.6c0-.875-.073-2.236-.152-3-.158-1.6-.365-2.115-.936-2.455a5.092,5.092,0,0,0-3.622,0,2.611,2.611,0,0,0-1.148,1.4,10.311,10.311,0,0,0-.018,3.755c.152.674.735,1.8.924,1.8a2.193,2.193,0,0,1,.474.352,3.738,3.738,0,0,0,1.069.766,5.092,5.092,0,0,1,.492.292c.073.073,1.209.626,1.963.954.334.152.747.334.905.4s.717.3,1.209.5,1.045.431,1.227.51a1.467,1.467,0,0,0,.456.14.454.454,0,0,1,.231.079,9.927,9.927,0,0,0,1.155.474,9.943,9.943,0,0,1,1.155.474.434.434,0,0,0,.249.079,1.176,1.176,0,0,1,.4.134,7.712,7.712,0,0,0,.753.31c.28.1.778.31,1.106.462s.784.352,1.009.456a28.705,28.705,0,0,1,3.451,1.793c.018.043.1.073.17.073a.463.463,0,0,1,.273.134,3.293,3.293,0,0,0,.535.371,5.364,5.364,0,0,1,.6.425c.109.091.431.352.7.571a8.719,8.719,0,0,1,2.5,3.834,11.178,11.178,0,0,1,.541,4.126,20.177,20.177,0,0,1-.48,5.785,9.46,9.46,0,0,1-3.221,5.232,14.3,14.3,0,0,1-2.516,1.537,20.566,20.566,0,0,1-4.017,1.446,36.158,36.158,0,0,1-4.679.784c-1.379.14-5.432.188-7.346.1Z" transform="translate(-3400.337 -731.992)" fill="#fff"/>
    <path id="Trazado_169" data-name="Trazado 169" d="M-.094,654.232V625.806H19.229l.012,11v10.986l.273-.723a4.73,4.73,0,0,1,.352-.8.361.361,0,0,0,.073-.231,1.145,1.145,0,0,1,.14-.425c.073-.152.334-.784.565-1.41s.5-1.331.6-1.549.249-.626.352-.905a3.14,3.14,0,0,1,.273-.6.4.4,0,0,0,.079-.231,2.052,2.052,0,0,1,.188-.553c.1-.231.31-.766.462-1.179s.365-.948.462-1.179a2.052,2.052,0,0,0,.188-.553.375.375,0,0,1,.091-.231,13.848,13.848,0,0,0,.565-1.41c.273-.717.523-1.349.571-1.41a.434.434,0,0,0,.079-.249,1.178,1.178,0,0,1,.134-.4,8.955,8.955,0,0,0,.371-.905,6.929,6.929,0,0,1,.3-.754,10.657,10.657,0,0,0,.4-1.009c.182-.492.413-1.088.5-1.307s.444-1.076.747-1.914.626-1.629.693-1.793l.122-.273h9.048c8.562,0,9.036.012,8.963.182a4.594,4.594,0,0,0-.17.462c-.061.158-.261.6-.444.984a6.465,6.465,0,0,0-.34.747,12.286,12.286,0,0,1-.5,1.2c-.049.109-.182.431-.3.7-.571,1.349-.614,1.44-1,2.3-.17.383-.31.717-.31.747a2.375,2.375,0,0,1-.17.413c-.662,1.477-.845,1.9-1.136,2.589-.122.28-.249.6-.3.7s-.182.431-.3.7-.249.6-.3.7-.182.431-.3.7-.249.6-.3.7-.182.431-.3.7-.249.6-.3.7c-.152.34-.565,1.288-.8,1.811-.122.28-.261.6-.31.7s-.182.431-.3.7-.28.644-.365.826a1.948,1.948,0,0,0-.14.365,5.971,5.971,0,0,1-.3.7c-.158.365-.3.687-.3.7s-.14.365-.31.747-.34.778-.395.887-.188.456-.334.754-.4.918-.6,1.367l-.352.814.431,1.136c.243.626.5,1.276.583,1.458a1.5,1.5,0,0,1,.158.474.548.548,0,0,0,.079.243,14.34,14.34,0,0,1,.626,1.55c.292.8.565,1.507.6,1.562a7.543,7.543,0,0,1,.3.754c.134.365.3.766.371.905a1.15,1.15,0,0,1,.134.413.573.573,0,0,0,.079.249,6.878,6.878,0,0,1,.425,1,6.789,6.789,0,0,0,.413,1,.462.462,0,0,1,.091.249,2.463,2.463,0,0,0,.2.565,2.369,2.369,0,0,1,.2.565.573.573,0,0,0,.079.249,8.735,8.735,0,0,1,.474,1.148,9.157,9.157,0,0,0,.474,1.148.5.5,0,0,1,.079.249,1.149,1.149,0,0,0,.134.413,8.95,8.95,0,0,1,.371.905c.134.365.3.766.371.905a1.15,1.15,0,0,1,.134.413.573.573,0,0,0,.079.249,6.881,6.881,0,0,1,.425,1,5.7,5.7,0,0,0,.425,1,.5.5,0,0,1,.079.249,2.462,2.462,0,0,0,.2.565,2.37,2.37,0,0,1,.2.565.573.573,0,0,0,.079.249,6.885,6.885,0,0,1,.425,1c.182.5.4,1.088.5,1.306s.322.814.5,1.306.371.954.4,1.009.334.8.656,1.659.662,1.75.766,1.981a2.3,2.3,0,0,1,.188.51,1.525,1.525,0,0,0,.152.383,1.4,1.4,0,0,1,.152.474c0,.158-.541.17-9.96.17s-9.96-.012-9.96-.17a18.706,18.706,0,0,0-.535-1.793c-.48-1.44-1-3.057-1.446-4.527-.091-.273-.188-.571-.231-.656a3.047,3.047,0,0,1-.152-.5,2.634,2.634,0,0,0-.158-.5c-.043-.079-.243-.693-.444-1.361s-.456-1.428-.553-1.714-.31-.936-.48-1.458c-.425-1.349-1.306-4.144-1.58-4.983-.122-.383-.395-1.246-.6-1.914s-.4-1.276-.444-1.361a7.54,7.54,0,0,1-.249-.754c-.109-.334-.219-.693-.273-.8s-.188-.565-.322-1.009l-.249-.8-.012,12.153-.012,12.147H-.1V654.226Z" transform="translate(0 -585.284)" fill="#fff"/>
    <path id="Trazado_170" data-name="Trazado 170" d="M2329.238,745.148c-3.36-.17-5.05-.4-5.955-.8a1.539,1.539,0,0,0-.462-.14.27.27,0,0,1-.213-.091.6.6,0,0,0-.31-.152,12.645,12.645,0,0,1-2.06-1.215,7.988,7.988,0,0,1-1.781-2.072,5.141,5.141,0,0,1-.644-2.151c-.231-1.981-.28-4.758-.28-17.78l-.012-13.563H2313.5V699.84h4.023V692.5h18.51v7.341h5.129v7.341l-2.534.018-2.546.03v13.484c0,13.909.03,15.191.4,16.127a.878.878,0,0,0,.431.492,18.76,18.76,0,0,0,3.926.431h1.027v7.547l-5.1-.012c-2.819-.012-6.2-.079-7.529-.152Z" transform="translate(-2173.011 -647.93)" fill="#fff"/>
    <path id="Trazado_171" data-name="Trazado 171" d="M4966.6,1108.818c-.049-.018-.571-.091-1.155-.14-3.208-.31-5.6-1.61-6.581-3.561-.845-1.689-.966-3.008-.966-10.276,0-5.457.091-7.675.34-8.392a5.746,5.746,0,0,1,.778-1.531c.043,0,.1-.079.134-.17a6.279,6.279,0,0,1,2.546-2.1,6.8,6.8,0,0,1,.8-.34,1.938,1.938,0,0,0,.371-.14,16.775,16.775,0,0,1,4.618-.766,26.171,26.171,0,0,1,3.755.413,11.561,11.561,0,0,1,2.595.978,4.081,4.081,0,0,1,.875.535c0,.043.079.1.188.14a4.658,4.658,0,0,1,1.471,1.6,8.61,8.61,0,0,1,.6,1.622,13.24,13.24,0,0,1,.322,3.907l.061,2.886-4.114-.018-4.114-.03-.048-3.318c-.061-3.9-.061-3.883-.845-4.138a1.355,1.355,0,0,0-1.088,0c-.492.14-.571.2-.747.583-.183.413-.188.766-.188,8.586,0,7.778.012,8.179.188,8.574a.861.861,0,0,0,.687.6,1.288,1.288,0,0,0,.936.042c.936-.261,1-.474,1.058-3.822l.048-2.765,4.114-.03,4.114-.018-.061,2.333a13.388,13.388,0,0,1-.474,4,5.458,5.458,0,0,1-2.224,2.868c-.243.158-.462.31-.492.34a11.077,11.077,0,0,1-2.115.966c-.3.091-.687.2-.857.249a18.878,18.878,0,0,1-4.527.353Z" transform="translate(-4656.723 -1013.199)" fill="#fff"/>
    <path id="Trazado_172" data-name="Trazado 172" d="M4595.2,1104.432V1091.3h8.252v9.358h2.516V1091.3h8.155v26.263h-8.155l-.018-5.505-.03-5.511-1.228-.03-1.24-.03v11.078H4595.2Z" transform="translate(-4316.063 -1022.497)" fill="#fff"/>
    <path id="Trazado_173" data-name="Trazado 173" d="M5327,1104.338v-13.131h10.634l.121.687c.28,1.489.414,2.273.875,5.05.219,1.367.426,2.528.535,3.117.109.535.352,1.914.5,2.765.091.541.17.31.371-1.045.079-.583.219-1.5.3-2.023s.219-1.41.3-1.963.219-1.41.292-1.914c.243-1.507.443-2.868.571-3.792l.122-.887h10.731v26.263h-7.243l-.012-8.574c-.012-5.511-.049-8.4-.1-8.082-.1.541-.334,1.92-.541,3.269-.073.474-.2,1.288-.292,1.811s-.219,1.4-.31,1.945-.219,1.416-.31,1.963-.219,1.361-.292,1.829c-.249,1.531-.443,2.747-.541,3.47-.091.626-.243,1.489-.371,2.145l-.042.219h-5.117l-.1-.674c-.061-.383-.182-1.088-.273-1.592s-.231-1.288-.31-1.762-.188-1.076-.243-1.361-.17-.905-.249-1.41c-.274-1.55-.462-2.686-.6-3.47-.073-.413-.2-1.209-.3-1.762s-.231-1.349-.3-1.762-.213-1.185-.3-1.714-.2-1.136-.243-1.361-.091,3.251-.1,8.234l-.012,8.623H5327v-13.132Z" transform="translate(-5003.392 -1022.403)" fill="#fff"/>
    <path id="Trazado_174" data-name="Trazado 174" d="M4381.6,1252.713V1250.3h8.252v4.825H4381.6Z" transform="translate(-4115.442 -1171.835)" fill="#fff"/>
    <path id="Trazado_175" data-name="Trazado 175" d="M280.563,52.038a.349.349,0,0,1,.213-.188,1.322,1.322,0,0,0,.425-.273c.14-.134.6-.5,1.009-.832a33.745,33.745,0,0,0,4.709-4.667,3.308,3.308,0,0,1,.31-.413,19.208,19.208,0,0,0,1.446-2.267c1.61-3.117,1.55-5.888-.188-8.5-.243-.365-.553-.784-.693-.948a14.166,14.166,0,0,0-1.714-1.72c-.28-.219-.523-.425-.553-.456s-.213-.17-.4-.3a5.581,5.581,0,0,1-.462-.352,5.288,5.288,0,0,0-.474-.3c-.2-.109-.371-.231-.371-.273a.084.084,0,0,0-.091-.079,2.285,2.285,0,0,1-.565-.31,36.958,36.958,0,0,0-4.375-2.194c-.693-.292-1.392-.6-1.562-.662-1.136-.492-5.293-1.853-7.4-2.406-.747-.2-1.489-.4-1.659-.456s-.7-.188-1.209-.3-1.069-.249-1.258-.31c-.456-.122-2.072-.48-2.971-.675-.383-.079-1-.213-1.361-.292-.778-.158-2.412-.474-4.782-.893-.857-.152-1.367-.231-3.743-.614-1.963-.3-4.478-.662-6.417-.905-.662-.079-1.519-.188-1.914-.249-7.857-1.076-23.456-2.212-35.621-2.607-1.768-.049-4.418-.152-5.888-.2-4.144-.17-22.884-.243-29.836-.109-7.808.14-12.992.273-16.3.413-1.44.061-3.774.152-5.183.213-6.478.243-14.237.656-21.833,1.148-5.1.334-12.84.905-15.6,1.155-.583.049-1.872.158-2.868.249-2.5.213-4.843.425-6.739.6-.887.091-2.333.219-3.221.3s-2.273.219-3.1.31-2.133.219-2.941.3C90.231,22.5,84.6,23.119,82.3,23.423l-1.914.243c-1.671.2-3.512.431-4.831.6l-2.364.31c-2.576.334-3.664.48-6.721.905-1.659.243-3.02.431-4.144.6-.583.091-1.507.219-2.06.3s-1.276.2-1.61.249-1.039.17-1.562.249c-1.088.158-2.564.395-3.822.6-.474.073-1.288.213-1.811.292s-1.392.231-1.914.31-1.337.231-1.811.3-1.258.213-1.762.3-1.27.231-1.714.3-1.209.213-1.714.3-1.246.219-1.659.3-1.094.2-1.507.28-1.027.213-1.361.273-.948.17-1.361.249-1.118.219-1.562.3-1.118.213-1.507.292-1.088.219-1.562.31c-1.659.334-2.376.474-3.02.6-.365.079-.966.213-1.361.292-1.78.365-3.391.717-3.974.857-.188.049-.693.17-1.106.261s-1.027.219-1.361.3-.918.213-1.306.292-1,.231-1.361.31c-.583.14-1.227.292-2.163.51-.158.043-.28.043-.249.012.061-.073,3.822-1.477,3.944-1.477a2.859,2.859,0,0,0,.492-.188,3.183,3.183,0,0,1,.723-.261,1.53,1.53,0,0,0,.425-.152,1.757,1.757,0,0,1,.456-.152,3.245,3.245,0,0,0,.5-.152c.079-.049.893-.322,1.811-.614s1.75-.553,1.859-.6.541-.17.954-.292,1.094-.334,1.507-.462c1.629-.5,2.595-.8,4.126-1.24.583-.158,1.392-.395,1.78-.5s1.179-.334,1.714-.474,1.215-.322,1.489-.4.766-.2,1.088-.292.832-.219,1.155-.31.826-.213,1.124-.292.735-.188.954-.249.656-.17.954-.249c2.826-.693,5.141-1.276,5.432-1.361.188-.049.766-.188,1.258-.3s1.069-.249,1.258-.31.553-.14.8-.188.747-.158,1.106-.249.948-.219,1.306-.292.905-.213,1.209-.292.893-.219,1.306-.31,1.027-.231,1.361-.31l1.61-.352c1-.213,1.945-.425,2.716-.6.219-.049.766-.158,1.209-.261s1.076-.219,1.41-.3.857-.182,1.155-.243.875-.17,1.258-.249,1.027-.219,1.41-.3.905-.188,1.155-.249.814-.17,1.258-.261,1.094-.219,1.458-.292,1.039-.213,1.507-.3,1.179-.231,1.562-.31,1.045-.2,1.458-.28c.754-.14,1.829-.352,3.172-.626.395-.079,1.088-.213,1.562-.292s1.2-.219,1.61-.3,1.136-.219,1.61-.3,1.057-.188,1.306-.249.863-.17,1.361-.261,1.246-.219,1.659-.292,1.167-.2,1.659-.292,1.27-.219,1.714-.3c1.841-.34,3.713-.662,5.232-.918.444-.073,1.24-.213,1.762-.3s1.337-.219,1.811-.3c1.477-.243,2.85-.462,3.318-.553.431-.073,1.306-.213,3.421-.553.523-.091,1.41-.231,1.963-.31s1.44-.219,1.963-.3c1.689-.261,2.947-.456,3.925-.6.523-.079,1.428-.213,2.011-.3,1.118-.17,2.412-.365,4.077-.6,2.443-.352,3.348-.48,3.822-.553.28-.043,1.045-.152,1.714-.243s1.714-.231,2.315-.31c1.738-.249,4.91-.662,6.842-.905.662-.079,1.732-.219,2.364-.3s1.75-.219,2.467-.31,1.829-.213,2.467-.292c1.537-.182,3.524-.425,5.159-.6.723-.091,1.689-.2,2.133-.249,1.41-.17,4.047-.462,7.851-.857,8.179-.845,16.571-1.6,23.747-2.121,1.167-.079,2.637-.188,3.269-.243,4.327-.352,14.256-.893,19.925-1.106,1.471-.049,3.932-.152,5.481-.219,3.944-.182,26.889-.182,30.389,0,1.392.073,3.439.17,4.576.231,4.928.219,11.248.693,14.79,1.094.474.049,1.471.158,2.212.249,4.491.5,8.683,1.106,12.53,1.811.5.091,1.155.213,1.458.261s.826.152,1.155.231l1.209.261c1.337.28,4.709,1.094,6.49,1.568.3.091.766.213,1.027.273a2.021,2.021,0,0,1,.541.2.361.361,0,0,0,.231.073,10.092,10.092,0,0,1,1.72.5,3.049,3.049,0,0,0,.5.152,3.246,3.246,0,0,1,.5.152,7.845,7.845,0,0,0,.857.3,10.117,10.117,0,0,1,1.392.5c.122.049.656.261,1.179.456s1.045.4,1.155.456.456.188.754.3a47.962,47.962,0,0,1,8.27,4.448c.091.073.261.2.383.28.249.17,1.227.924,1.914,1.489a32.634,32.634,0,0,1,2.826,2.826c.243.292.523.632.632.753a22.044,22.044,0,0,1,2.005,3.221,10.851,10.851,0,0,1,.474,3.281c0,3.433-1.4,6.393-4.63,9.759a41.151,41.151,0,0,1-3.269,2.826,56.959,56.959,0,0,1-6.137,3.913,4.938,4.938,0,0,0-.553.3c-.073.073-3.573,1.8-4.478,2.212-.754.34-.845.383-1.61.7-.273.122-.6.249-.7.3s-.456.188-.754.3-.644.249-.753.3-.747.3-1.41.553-1.3.492-1.41.541c-.4.182-1.92.7-2.212.778a2.233,2.233,0,0,0-.4.14,1.6,1.6,0,0,1-.456.152,2.634,2.634,0,0,0-.5.158c-.152.079-1.981.656-2.564.8l-.626.17c-.261.079-.31.079-.261-.043Z" transform="translate(-15.237)" fill="#fff"/>
  </g>
</svg>
